<?xml version="1.0" encoding="UTF-8"?>
<svg width="56px" height="103px" viewBox="0 0 56 103" version="1.1" xmlns="http://www.w3.org/2000/svg" xmlns:xlink="http://www.w3.org/1999/xlink">
    <!-- Generator: Sketch 55.2 (78181) - https://sketchapp.com -->
    <title>Group 42</title>
    <desc>Created with Sketch.</desc>
    <defs>
        <polygon id="path-1" points="0 0 55.93432 0 55.93432 101.99996 0 101.99996"></polygon>
        <polygon id="path-3" points="0.16625625 0.190953347 2.97875625 0.190953347 2.97875625 24.137931 0.16625625 24.137931"></polygon>
        <polygon id="path-5" points="0.147225 0.190953347 2.959725 0.190953347 2.959725 24.137931 0.147225 24.137931"></polygon>
    </defs>
    <g id="Simulação" stroke="none" stroke-width="1" fill="none" fill-rule="evenodd">
        <g id="Sexo-3" transform="translate(-269.000000, -580.000000)">
            <g id="Group-42" transform="translate(269.000000, 580.000000)">
                <path d="M16.575431,66 L40.4239436,66 C45.8973466,66 50.4906746,61.8495002 51.0751274,56.374843 L53.8511786,30.3898126 C55.4711077,15.2265032 43.6596072,2 28.4999869,2 C13.3397674,2 1.5290659,15.2265032 3.14879528,30.3890089 L5.92424721,56.374843 C6.50929929,61.8495002 11.102827,66 16.575431,66" id="Fill-1" fill="#BA6F3C"></path>
                <path d="M54,82.0771281 L54,100 L3,100 L3,82.0771281 C3,74.9821117 6.94964358,68.7930044 12.814284,65.506564 C15.660712,63.9111932 18.9557771,63 22.4691681,63 L34.5284349,63 C38.1137357,63 41.4743185,63.9493552 44.3588986,65.6075467 C50.1274597,68.9176672 54,75.0523691 54,82.0771281" id="Fill-3" fill="#FAAA3C"></path>
                <path d="M43,65.7610379 C42.4364243,74.278312 35.7123833,81 27.5031408,81 C19.256994,81 12.5129304,74.2207041 12,65.6541109 C14.7964818,63.9648302 18.0346374,63 21.4883297,63 L33.3383379,63 C36.8625017,62.9991716 40.1644546,64.0044097 43,65.7610379" id="Fill-5" fill="#FFEB9B"></path>
                <path d="M27.5,70 C25.0144419,70 23,68 23,65.5322613 L23,53 L32,53 L32,65.5322613 C32,68 29.9847583,70 27.5,70" id="Fill-7" fill="#F8C298"></path>
                <path d="M54,37.9996039 C54,41.3133767 51.3135747,44 47.9996039,44 C44.6858312,44 42,41.3133767 42,37.9996039 C42,34.6858312 44.6858312,32 47.9996039,32 C51.3135747,32 54,34.6858312 54,37.9996039" id="Fill-9" fill="#F8C298"></path>
                <path d="M14,37.9996039 C14,41.3133767 11.3135747,44 7.99960395,44 C4.68583122,44 2,41.3133767 2,37.9996039 C2,34.6858312 4.68583122,32 7.99960395,32 C11.3135747,32 14,34.6858312 14,37.9996039" id="Fill-11" fill="#F8C298"></path>
                <path d="M9,21 L11.8793244,43.8764927 C12.8949363,51.9446146 19.805872,58 28,58 C36.1931333,58 43.1050637,51.9446146 44.1198798,43.8764927 L47,21 L9,21 Z" id="Fill-13" fill="#FFD6C0"></path>
                <path d="M6,19 L6,25.605576 C6,25.605576 18.4743523,30.0115387 27.4592078,21.8465 C27.4592078,21.8465 30.9089787,32.732822 45.7533143,34.9764196 C46.8870015,35.1481963 47.9436323,34.3626201 48.0949503,33.2342831 L50,19 L6,19 Z" id="Fill-15" fill="#BA6F3C"></path>
                <path d="M41,43.5002747 C41,44.3281641 40.3281641,45 39.5002747,45 C38.6718359,45 38,44.3281641 38,43.5002747 C38,42.6718359 38.6718359,42 39.5002747,42 C40.3281641,42 41,42.6718359 41,43.5002747" id="Fill-17" fill="#ED7A98"></path>
                <path d="M18,43.5002747 C18,44.3281641 17.3287328,45 16.4999084,45 C15.6712672,45 15,44.3281641 15,43.5002747 C15,42.6718359 15.6712672,42 16.4999084,42 C17.3287328,42 18,42.6718359 18,43.5002747" id="Fill-19" fill="#ED7A98"></path>
                <path d="M32,93.0004213 C32,95.209584 30.209584,97 28.0004213,97 C25.7910479,97 24,95.209584 24,93.0004213 C24,90.7912586 25.7910479,89 28.0004213,89 C30.209584,89 32,90.7912586 32,93.0004213" id="Fill-21" fill="#EBEEF2"></path>
                <g id="Group-25">
                    <mask id="mask-2" fill="white">
                        <use xlink:href="#path-1"></use>
                    </mask>
                    <g id="Clip-24"></g>
                    <path d="M27.97032,78.6517219 C20.76252,78.6517219 14.71172,73.2937336 13.77272,66.2838234 C16.22272,65.0379094 18.99612,64.334468 21.93052,64.334468 L21.96632,64.334468 L21.96632,65.762468 C21.96632,69.0581438 24.65792,71.7398273 27.96712,71.7398273 C31.27572,71.7398273 33.96792,69.0589406 33.96792,65.762468 L33.96792,64.334468 L34.00392,64.334468 C36.94072,64.334468 39.71572,65.0387063 42.16792,66.2876086 C41.22572,73.2891516 35.15852,78.6517219 27.97032,78.6517219 L27.97032,78.6517219 Z M6.85472,55.2451125 L5.78752,45.3572883 C6.35632,45.4935539 6.94932,45.5682609 7.56012,45.5682609 C8.53512,45.5682609 9.49992,45.3768117 10.39612,45.0156281 C11.50932,51.4310695 16.04532,56.5890422 21.96632,58.7057414 L21.96632,61.3461867 L21.93052,61.3461867 C18.93672,61.3461867 16.08832,61.9749211 13.50852,63.104093 C9.91872,62.0892727 7.25472,58.9547648 6.85472,55.2451125 L6.85472,55.2451125 Z M8.95932,33.7155422 L9.98352,41.8827141 C9.25932,42.3379289 8.43132,42.5791828 7.55932,42.5791828 C5.04532,42.5791828 2.99992,40.5417727 2.99992,38.037593 C2.99992,35.5334133 5.04532,33.4952062 7.55932,33.4952062 C8.04072,33.4960031 8.50932,33.571507 8.95932,33.7155422 L8.95932,33.7155422 Z M26.85312,24.0323156 C27.45932,25.1933625 28.42892,26.75205 29.89612,28.3784719 C32.33592,31.0828664 36.65552,34.4827336 43.66952,35.9651203 L42.68432,43.8173273 C41.75932,51.1961906 35.43212,56.7601711 27.96712,56.7601711 C20.50152,56.7601711 14.17492,51.1961906 13.24932,43.8173273 L11.26252,27.9730617 C15.55852,28.3615383 21.58292,27.9374016 26.85312,24.0323156 L26.85312,24.0323156 Z M45.95072,41.8827141 L46.65152,36.2968195 C47.20552,36.2049797 47.73352,35.9816555 48.19692,35.6352141 C48.86492,35.1355734 49.32432,34.4369133 49.51632,33.6400383 C51.47972,34.1466516 52.93432,35.9262727 52.93432,38.037593 C52.93432,40.5417727 50.88832,42.5799797 48.37432,42.5799797 C47.50312,42.5799797 46.67492,42.3387258 45.95072,41.8827141 L45.95072,41.8827141 Z M24.96632,59.4908625 C25.94452,59.6574094 26.94612,59.7484523 27.96712,59.7484523 C28.98832,59.7484523 29.98992,59.6574094 30.96792,59.4908625 L30.96792,65.762468 C30.96792,67.4106047 29.62192,68.7515461 27.96712,68.7515461 C26.31252,68.7515461 24.96632,67.4106047 24.96632,65.762468 L24.96632,59.4908625 Z M45.76492,64.9436789 C48.15232,63.6364055 50.08212,61.5523781 51.16092,59.0209055 C51.48432,58.2606867 51.12812,57.3835266 50.36572,57.0613898 C49.60312,56.7392531 48.72272,57.0940617 48.39932,57.8536828 C47.31412,60.4006945 45.08752,62.3492531 42.42272,63.1032961 C39.84372,61.9741242 36.99612,61.3461867 34.00392,61.3461867 L33.96792,61.3461867 L33.96792,58.7057414 C39.88672,56.5890422 44.42192,51.434257 45.53672,45.0204094 C46.42812,45.3805969 47.38512,45.5682609 48.37432,45.5682609 C48.98432,45.5682609 49.57732,45.4935539 50.14612,45.3572883 L49.45472,51.7703391 C49.36572,52.5915188 49.96172,53.327632 50.78592,53.4162844 C50.83992,53.4216633 50.89372,53.4248508 50.94772,53.4248508 C51.70392,53.4248508 52.35472,52.8560813 52.43752,52.0902844 L53.34212,43.7067609 C54.92892,42.3253781 55.93432,40.2967336 55.93432,38.037593 C55.93432,36.3557883 55.37732,34.8010852 54.43832,33.5458078 L54.84212,29.801093 C55.78912,21.0199289 52.34452,12.3244289 45.62812,6.53991328 C45.00152,6.00062813 44.05392,6.06915937 43.51252,6.69331172 C42.97032,7.31746406 43.03912,8.2613625 43.66572,8.80064766 C49.63832,13.9444758 52.70152,21.6751594 51.85932,29.4813469 L51.66712,31.2601711 C51.12192,30.9972023 50.54072,30.7971867 49.93292,30.6694875 L50.42192,27.0034641 C50.53052,26.1856711 49.95392,25.4338195 49.13212,25.3256438 C48.31092,25.2166711 47.55712,25.7918156 47.44772,26.6098078 L46.61172,32.8780266 C46.58512,33.0772453 46.46492,33.1931906 46.39612,33.2453859 C46.32572,33.2975813 46.17972,33.3808547 45.97892,33.3497766 C40.22352,32.4773977 35.59692,30.1692492 32.22732,26.4914719 C29.70472,23.7380695 28.86172,21.1966359 28.85552,21.1763156 C28.70152,20.6892258 28.30852,20.3140969 27.81332,20.1818156 C27.31872,20.0495344 26.78992,20.1778313 26.41172,20.5226789 C19.90312,26.4588 11.30392,25.2190617 7.90772,24.4098352 C7.10232,24.2183859 6.29292,24.7132453 6.10072,25.5154992 C5.90772,26.3179523 6.40472,27.1241906 7.21012,27.3162375 C7.50072,27.3855656 7.82812,27.4570852 8.18272,27.528007 L8.56492,30.5754563 C8.23352,30.5318273 7.89852,30.5077219 7.55932,30.5077219 C6.37972,30.5077219 5.26252,30.7784602 4.26632,31.2601711 L4.07432,29.4813469 C3.34692,22.7373938 5.53912,15.9749133 10.08992,10.9283039 C14.64072,5.88249141 21.15712,2.98824141 27.96712,2.98824141 C31.63592,2.98824141 35.15312,3.78750703 38.42192,5.36332734 C39.16712,5.72291719 40.06492,5.41153828 40.42572,4.66924922 C40.78672,3.92676094 40.47492,3.03346406 39.72892,2.67387422 C36.04932,0.899632031 32.09212,-3.984375e-05 27.96712,-3.984375e-05 C20.30712,-3.984375e-05 12.97812,3.25519453 7.85932,8.93133516 C2.73992,14.6074758 0.27352,22.2144445 1.09212,29.801093 L1.49612,33.5458078 C0.55712,34.8010852 -8e-05,36.3557883 -8e-05,38.037593 C-8e-05,40.2967336 1.00552,42.3253781 2.59212,43.7067609 L3.87112,55.5640617 C4.30232,59.5625813 6.71952,63.055882 10.16632,64.9452727 C4.59932,68.7103078 0.93432,75.0665813 0.93432,82.2593742 L0.93432,88.417425 C0.93432,89.2429875 1.60632,89.9115656 2.43432,89.9115656 C3.26252,89.9115656 3.93432,89.2429875 3.93432,88.417425 L3.93432,82.2593742 C3.93432,76.4549367 6.71952,71.2868039 11.02732,68.0090578 C12.70932,75.8275969 19.71492,81.6400031 27.97032,81.6400031 C36.20392,81.6400031 43.22352,75.8230148 44.91092,68.0122453 C49.21632,71.2907883 51.99932,76.4571281 51.99932,82.2593742 L51.99932,100.50582 C51.99932,101.330784 52.67112,101.99996 53.49932,101.99996 C54.32812,101.99996 54.99932,101.330784 54.99932,100.50582 L54.99932,82.2593742 C54.99932,75.0657844 51.33352,68.7087141 45.76492,64.9436789 L45.76492,64.9436789 Z" id="Fill-23" fill="#000000" mask="url(#mask-2)"></path>
                </g>
                <path d="M2.5,93 C1.6718,93 1,93.7284578 1,94.626506 L1,100.373494 C1,101.271542 1.6718,102 2.5,102 C3.3282,102 4,101.271542 4,100.373494 L4,94.626506 C4,93.7284578 3.3282,93 2.5,93" id="Fill-26" fill="#000000"></path>
                <path d="M19.5123917,39 C19.5262708,39 19.5403481,39 19.5542272,38.9991921 C20.3752733,38.9763692 21.0218397,38.2797661 20.9994349,37.4433979 L20.9738577,36.473728 C20.951453,35.6375618 20.2689993,34.9746881 19.4465652,35.0007425 C18.6255191,35.0237674 17.9781597,35.7203706 18.0005645,36.5565367 L18.0269347,37.5262067 C18.0485464,38.3490426 18.7099832,39 19.5123917,39" id="Fill-28" fill="#000000"></path>
                <path d="M36.5123917,39 C36.5262708,39 36.5403481,39 36.5542272,38.9991921 C37.3752733,38.9763692 38.0218397,38.2797661 37.9994349,37.4433979 L37.9738577,36.473728 C37.951453,35.6375618 37.2684044,34.9746881 36.4465652,35.0007425 C35.6255191,35.0237674 34.9781597,35.7203706 35.0005645,36.5565367 L35.0269347,37.5262067 C35.0485464,38.3490426 35.7099832,39 36.5123917,39" id="Fill-30" fill="#000000"></path>
                <path d="M28.0002904,48 C30.6465511,48 33.1556598,46.6835829 34.710589,44.4785844 C35.2036055,43.7803834 35.0514399,42.803277 34.3705497,42.297123 C33.6898624,41.790969 32.7387262,41.9471893 32.2459126,42.6462235 C31.2606913,44.0424171 29.6741117,44.8755924 28.0002904,44.8755924 C26.3264692,44.8755924 24.739078,44.0424171 23.7546682,42.6462235 C23.2618547,41.9471893 22.3107184,41.790969 21.6292196,42.297123 C20.9491409,42.803277 20.7961638,43.7803834 21.2891802,44.4785844 C22.844921,46.6835829 25.3532182,48 28.0002904,48" id="Fill-32" fill="#000000"></path>
                <g id="Group-36" transform="translate(10.000000, 78.000000)">
                    <mask id="mask-4" fill="white">
                        <use xlink:href="#path-3"></use>
                    </mask>
                    <g id="Clip-35"></g>
                    <path d="M1.57250625,0.190953347 C0.79531875,0.190953347 0.16625625,0.872292089 0.16625625,1.71225152 L0.16625625,22.616714 C0.16625625,23.4564706 0.79531875,24.1380122 1.57250625,24.1380122 C2.34894375,24.1380122 2.97875625,23.4564706 2.97875625,22.616714 L2.97875625,1.71225152 C2.97875625,0.872292089 2.34894375,0.190953347 1.57250625,0.190953347" id="Fill-34" fill="#000000" mask="url(#mask-4)"></path>
                </g>
                <g id="Group-39" transform="translate(43.000000, 78.000000)">
                    <mask id="mask-6" fill="white">
                        <use xlink:href="#path-5"></use>
                    </mask>
                    <g id="Clip-38"></g>
                    <path d="M1.553475,0.190953347 C0.7762875,0.190953347 0.147225,0.872292089 0.147225,1.71225152 L0.147225,22.616714 C0.147225,23.4564706 0.7762875,24.1380122 1.553475,24.1380122 C2.3299125,24.1380122 2.959725,23.4564706 2.959725,22.616714 L2.959725,1.71225152 C2.959725,0.872292089 2.3299125,0.190953347 1.553475,0.190953347" id="Fill-37" fill="#000000" mask="url(#mask-6)"></path>
                </g>
                <path d="M28.0003775,96.1757266 C26.8044545,96.1757266 25.8312571,95.2056829 25.8312571,94.0127098 C25.8312571,92.8197368 26.8044545,91.8489399 28.0003775,91.8489399 C29.1963005,91.8489399 30.1687429,92.8197368 30.1687429,94.0127098 C30.1687429,95.2056829 29.1963005,96.1757266 28.0003775,96.1757266 M31.0609664,90.0726602 L31.5351076,86.6033228 C31.6404304,85.8304133 31.0985277,85.1183199 30.3237071,85.0132569 C29.5471876,84.9072525 28.8357871,85.4485716 28.7295206,86.2216693 L28.3446584,89.0378464 C28.2304643,89.0305033 28.1160815,89.0246665 28.0003775,89.0246665 C27.8846735,89.0246665 27.7695357,89.0305033 27.6560966,89.0378464 L27.2704794,86.2216693 C27.1649679,85.4485716 26.4513024,84.9072525 25.6762929,85.0132569 C24.9022273,85.1183199 24.3595696,85.8304133 24.4656474,86.6033228 L24.9397886,90.0726602 C23.7608532,90.9862185 23,92.4122882 23,94.0127098 C23,96.7626106 25.2429219,99 28.0003775,99 C30.7570781,99 33,96.7626106 33,94.0127098 C33,92.4122882 32.2391468,90.9862185 31.0609664,90.0726602" id="Fill-40" fill="#000000"></path>
            </g>
        </g>
    </g>
</svg>