<?xml version="1.0" encoding="UTF-8"?>
<svg width="28px" height="28px" viewBox="0 0 28 28" version="1.1" xmlns="http://www.w3.org/2000/svg" xmlns:xlink="http://www.w3.org/1999/xlink">
    <!-- Generator: Sketch 55.2 (78181) - https://sketchapp.com -->
    <title>Group 9</title>
    <desc>Created with Sketch.</desc>
    <g id="Simulação" stroke="none" stroke-width="1" fill="none" fill-rule="evenodd" stroke-linecap="round" stroke-linejoin="round">
        <g id="Opções-2" transform="translate(-38.000000, -38.000000)" stroke="#3E3E3E" stroke-width="2">
            <g id="Group-4" transform="translate(27.000000, 27.000000)">
                <g id="Group-9" transform="translate(12.000000, 12.000000)">
                    <path d="M25.9573031,12.9786313 C25.9573031,20.1465063 20.1467094,25.9575063 12.9788344,25.9575063 C5.81095937,25.9575063 -4.0625e-05,20.1465063 -4.0625e-05,12.9786313 C-4.0625e-05,5.81075625 5.81095937,0.0001625 12.9788344,0.0001625 C20.1467094,0.0001625 25.9573031,5.81075625 25.9573031,12.9786313 Z" id="Stroke-1"></path>
                    <path d="M12.9787531,1.59050937 C12.9787531,1.59050937 8.05378437,1.32197812 8.05378437,5.17200937 L8.05378437,7.85854062 L7.69912812,7.79597812 C7.28678437,7.72325937 6.90897187,8.04054062 6.90897187,8.45938437 L6.90897187,9.82519687 C6.90897187,10.2290094 7.11047187,10.6060094 7.44644062,10.8302594 L8.14031562,11.2925719 L8.14031562,12.8781656 C8.14031562,13.7528219 8.54250312,14.5783219 9.23353438,15.1145719 C10.1118469,15.7950406 11.4484094,16.5709781 12.9787531,16.5709781 C14.5090969,16.5709781 15.8456594,15.7950406 16.7235656,15.1145719 C17.4150031,14.5783219 17.8171906,13.7528219 17.8171906,12.8781656 L17.8171906,11.2925719 L18.5106594,10.8302594 C18.8466281,10.6060094 19.0485344,10.2290094 19.0485344,9.82519687 L19.0485344,8.45938437 C19.0485344,8.04054062 18.6703156,7.72325937 18.2579719,7.79597812 L17.9037219,7.85854062 L17.9037219,5.17200937 C17.9037219,1.32197812 12.9787531,1.59050937 12.9787531,1.59050937 Z" id="Stroke-3"></path>
                    <path d="M9.94378125,15.608125 L9.94378125,17.8583437 C9.94378125,18.2353437 9.793875,18.5973125 9.52696875,18.8642187 L8.763625,19.6279687 C8.3971875,19.994 7.90075,20.1995625 7.38278125,20.1995625 L6.0311875,20.1995625 C5.4665,20.1995625 4.92496875,20.4238125 4.52603125,20.82275" id="Stroke-5"></path>
                    <path d="M16.013725,15.608125 L16.013725,17.8583437 C16.013725,18.2353437 16.1636312,18.5973125 16.4301312,18.8642187 L17.1938812,19.6279687 C17.5599125,19.994 18.0567562,20.1995625 18.5743187,20.1995625 L19.9263187,20.1995625 C20.4910062,20.1995625 21.0325375,20.4238125 21.431475,20.82275" id="Stroke-7"></path>
                </g>
            </g>
        </g>
    </g>
</svg>