<?xml version="1.0" encoding="UTF-8"?>
<svg width="35px" height="38px" viewBox="0 0 35 38" version="1.1" xmlns="http://www.w3.org/2000/svg" xmlns:xlink="http://www.w3.org/1999/xlink">
    <!-- Generator: Sketch 55.2 (78181) - https://sketchapp.com -->
    <title>Group32</title>
    <desc>Created with Sketch.</desc>
    <g id="Simulação" stroke="none" stroke-width="1" fill="none" fill-rule="evenodd">
        <g id="Ocupação" transform="translate(-86.000000, -595.000000)" stroke="#D16DE5" stroke-width="2">
            <g id="Group32" transform="translate(87.000000, 597.000000)">
                <path d="M25.9176923,29.2730308 C26.4253846,28.9044462 26.9107385,28.5069231 27.3722308,28.0840154 L25.7851846,23.9321077 C26.6335385,22.9872923 27.3402462,21.9140308 27.8768769,20.7463385 L32.0369077,20.5442769 C32.2704462,19.7289231 32.4420462,18.8881846 32.5461231,18.0261231 L29.0181692,16.0638923 C29.0283231,15.8608154 29.0339077,15.6562154 29.0339077,15.4500923 C29.0339077,14.3169231 28.8836308,13.2187846 28.6049077,12.1729385 L31.3606615,9.62330769 C31.0007077,8.78256923 30.5696769,7.9794 30.0797538,7.21786154 L26.5452,7.89918462 C25.7237538,6.78987692 24.7246154,5.82069231 23.5919538,5.02970769 L24.0234923,1.62512308 C23.2096615,1.18952308 22.3536923,0.823476923 21.4652308,0.529523077 L19.3659231,3.11469231 C18.3931846,2.87607692 17.3772923,2.74712308 16.3304308,2.74712308 C15.8943231,2.74712308 15.4627846,2.76946154 15.0373385,2.81210769 L13.2269077,4.97379915e-14 C12.3267692,0.173123077 11.4530308,0.418846154 10.6122923,0.733107692 L10.6661077,4.08032308 C9.31869231,4.75301538 8.10835385,5.65772308 7.08586154,6.74316923 L3.6894,5.68970769 C3.15023077,6.34716923 2.66386154,7.04930769 2.23181538,7.78647692 L4.61441538,10.5351231 C4.05087692,11.8774615 3.71173846,13.3370769 3.64218462,14.8672615 L3.33955086e-13,16.3964308 C0.0172615385,17.1980769 0.0908769231,17.9855077 0.219830769,18.7551692 L4.257,19.4004462 C4.70833846,20.7793385 5.38763077,22.0536462 6.25223077,23.1792 L4.25953846,27.0523846 C4.7652,27.6062769 5.30843077,28.1246308 5.88516923,28.6049077" id="Stroke-21"></path>
                <path d="M10.0279892,20.7677123 C8.82780462,19.3456662 8.10383538,17.50782 8.10383538,15.5004046 C8.10383538,10.9890508 11.7612508,7.33163538 16.2731123,7.33163538 C20.7844662,7.33163538 24.4423892,10.9890508 24.4423892,15.5004046 C24.4423892,17.4423277 23.7651277,19.2258508 22.6334815,20.6275892" id="Stroke-23"></path>
                <path d="M20.5328538,16.8868615 L20.5328538,18.7434923 C20.5328538,21.0270923 18.6645462,22.8948923 16.3809462,22.8948923 C14.0978538,22.8948923 12.2300538,21.0270923 12.2300538,18.7434923 L12.2300538,15.0297231 C12.2300538,12.7466308 14.0978538,10.8783231 16.3809462,10.8783231 C18.6645462,10.8783231 20.5328538,12.7466308 20.5328538,15.0297231 L20.5328538,16.8868615 Z" id="Stroke-25" stroke-linecap="round" stroke-linejoin="round"></path>
                <path d="M17.4941631,23.9871415 L18.6654092,24.3156185 L20.6403323,24.8700185 C21.5364092,25.1213262 22.3883169,25.5229108 23.1193938,26.0981262 C23.7474092,26.5916031 24.3180554,27.2323108 24.3180554,27.92988 L24.3180554,31.7660031 C24.3180554,33.3159877 23.04984,34.5852185 21.4998554,34.5852185 L11.0469785,34.5852185 C9.49648615,34.5852185 8.22776308,33.3159877 8.22776308,31.7660031 L8.22776308,27.92988 C8.22776308,27.2323108 8.79840923,26.5916031 9.42642462,26.0981262 C10.1580092,25.5229108 11.0104246,25.1213262 11.9054862,24.8700185 L13.8809169,24.3156185 L15.1455785,23.9607415" id="Stroke-27" stroke-linecap="round" stroke-linejoin="round"></path>
                <path d="M15.1455785,23.9605892 L15.1455785,22.8949431" id="Stroke-29" stroke-linecap="round" stroke-linejoin="round"></path>
                <path d="M17.4941631,23.9871415 L17.4941631,22.8950954" id="Stroke-31" stroke-linecap="round" stroke-linejoin="round"></path>
                <path d="M18.6652062,24.3155677 C18.69516,24.5221985 18.7103908,24.7364446 18.7103908,24.9547523 C18.7103908,26.7961523 17.61936,28.2892754 16.2724523,28.2892754 C14.9270677,28.2892754 13.8360369,26.7961523 13.8360369,24.9547523 C13.8360369,24.7364446 13.8517754,24.5221985 13.8807138,24.3155677" id="Stroke-33" stroke-linecap="round" stroke-linejoin="round"></path>
                <path d="M12.2298,15.0080446 C12.9908308,14.1860908 14.0524154,13.2925523 15.0500308,13.5205062 C15.8430462,13.7017523 16.0207385,14.4607523 16.8711231,14.8526908 C17.5458462,15.1633985 18.5556462,15.3146908 20.4549231,14.23026" id="Stroke-35" stroke-linecap="round" stroke-linejoin="round"></path>
            </g>
        </g>
    </g>
</svg>