<?xml version="1.0" encoding="UTF-8"?>
<svg width="37px" height="37px" viewBox="0 0 37 37" version="1.1" xmlns="http://www.w3.org/2000/svg" xmlns:xlink="http://www.w3.org/1999/xlink">
    <!-- Generator: Sketch 55.2 (78181) - https://sketchapp.com -->
    <title>Group 2132</title>
    <desc>Created with Sketch.</desc>
    <g id="Simulação" stroke="none" stroke-width="1" fill="none" fill-rule="evenodd" stroke-linecap="round" stroke-linejoin="round">
        <g id="Ocupação" transform="translate(-237.000000, -596.000000)" stroke="#EFA04E" stroke-width="2">
            <g id="Group-2132" transform="translate(238.000000, 597.000000)">
                <path d="M21.3209924,12.8024167 C21.3209924,14.8918106 19.6272045,18.2125682 17.5372803,18.2125682 C15.4478864,18.2125682 13.7535682,14.8918106 13.7535682,12.8024167 C13.7535682,10.7130227 15.4478864,9.01870455 17.5372803,9.01870455 C19.6272045,9.01870455 21.3209924,10.7130227 21.3209924,12.8024167 Z" id="Stroke-1"></path>
                <polyline id="Stroke-3" points="16.0718409 17.6553788 16.0771439 19.4228788 9.49131061 21.232803 9.49131061 24.7317424 25.3197955 24.7317424 25.3197955 21.2142424 18.9731288 19.3608333 18.9614621 17.6967424"></polyline>
                <path d="M20.3841591,3.18473485 C26.0334773,4.36200758 30.4795379,8.82079545 31.6371894,14.4780682" id="Stroke-5"></path>
                <path d="M3.1617197,14.5403788 C4.31353788,8.78234848 8.86990152,4.25356061 14.6417197,3.14151515" id="Stroke-7"></path>
                <path d="M14.6538636,31.6719242 C8.87568182,30.5641212 4.31401515,26.0326818 3.16166667,20.2704091" id="Stroke-9"></path>
                <path d="M31.6499697,20.2704091 C30.5119394,25.9573788 26.0547424,30.4453333 20.3842121,31.6268485" id="Stroke-11"></path>
                <path d="M34.8111061,17.405553 C34.8111061,18.9959318 33.5219394,20.2845682 31.9320909,20.2845682 C30.3422424,20.2845682 29.0536061,18.9959318 29.0536061,17.405553 C29.0536061,15.8157045 30.3422424,14.5265379 31.9320909,14.5265379 C33.5219394,14.5265379 34.8111061,15.8157045 34.8111061,17.405553 Z" id="Stroke-13"></path>
                <path d="M5.75834848,17.405553 C5.75834848,18.9959318 4.46918182,20.2845682 2.87880303,20.2845682 C1.28895455,20.2845682 0.000318181818,18.9959318 0.000318181818,17.405553 C0.000318181818,15.8157045 1.28895455,14.5265379 2.87880303,14.5265379 C4.46918182,14.5265379 5.75834848,15.8157045 5.75834848,17.405553 Z" id="Stroke-15"></path>
                <path d="M20.4002273,2.87917424 C20.4002273,4.46955303 19.1110606,5.75818939 17.5212121,5.75818939 C15.9308333,5.75818939 14.642197,4.46955303 14.642197,2.87917424 C14.642197,1.28879545 15.9308333,0.000159090909 17.5212121,0.000159090909 C19.1110606,0.000159090909 20.4002273,1.28879545 20.4002273,2.87917424 Z" id="Stroke-17"></path>
                <path d="M20.4002273,31.9321439 C20.4002273,33.5225227 19.1110606,34.8111591 17.5212121,34.8111591 C15.9308333,34.8111591 14.642197,33.5225227 14.642197,31.9321439 C14.642197,30.3417652 15.9308333,29.0531288 17.5212121,29.0531288 C19.1110606,29.0531288 20.4002273,30.3417652 20.4002273,31.9321439 Z" id="Stroke-19"></path>
            </g>
        </g>
    </g>
</svg>