<?xml version="1.0" encoding="UTF-8"?>
<svg width="38px" height="26px" viewBox="0 0 38 26" version="1.1" xmlns="http://www.w3.org/2000/svg" xmlns:xlink="http://www.w3.org/1999/xlink">
    <!-- Generator: Sketch 55.2 (78181) - https://sketchapp.com -->
    <title>Group 13</title>
    <desc>Created with Sketch.</desc>
    <g id="Simulação" stroke="none" stroke-width="1" fill="none" fill-rule="evenodd" opacity="0.8" stroke-linecap="round" stroke-linejoin="round">
        <g id="Opções-1" transform="translate(-64.000000, -824.000000)" stroke="#3E3E3E" stroke-width="2">
            <g id="Group" transform="translate(52.000000, 825.000000)">
                <g id="Group-13" transform="translate(13.000000, -0.000000)">
                    <path d="M23.1966857,8.81577143 C23.1966857,11.8403429 20.7446857,14.2923429 17.7201143,14.2923429 C14.6949714,14.2923429 12.2429714,11.8403429 12.2429714,8.81577143 C12.2429714,5.79062857 14.6949714,3.33862857 17.7201143,3.33862857 C20.7446857,3.33862857 23.1966857,5.79062857 23.1966857,8.81577143 Z" id="Stroke-1"></path>
                    <path d="M8.85994286,23.1525714 C8.85994286,18.2594286 12.8262286,14.2925714 17.7199429,14.2925714 C22.6130857,14.2925714 26.5793714,18.2594286 26.5793714,23.1525714 L8.85994286,23.1525714 Z" id="Stroke-3"></path>
                    <path d="M22.0865143,2.96228571 C22.9528,1.20742857 24.7608,7.10542736e-15 26.8505143,7.10542736e-15 C29.7830857,7.10542736e-15 32.1602286,2.37714286 32.1602286,5.30971429 C32.1602286,8.24171429 29.7830857,10.6188571 26.8505143,10.6188571 C26.1333714,10.6188571 25.4488,10.4765714 24.8248,10.2188571" id="Stroke-5"></path>
                    <path d="M24.9676571,10.8261143 C25.5739429,10.6906857 26.2036571,10.6192571 26.8505143,10.6192571 C31.5939429,10.6192571 35.4396571,14.4644 35.4396571,19.2078286 L27.9676571,19.2078286" id="Stroke-7"></path>
                    <path d="M13.3529714,2.96228571 C12.4866857,1.20742857 10.6786857,7.10542736e-15 8.58897143,7.10542736e-15 C5.6564,7.10542736e-15 3.27925714,2.37714286 3.27925714,5.30971429 C3.27925714,8.24171429 5.6564,10.6188571 8.58897143,10.6188571 C9.30611429,10.6188571 9.99068571,10.4765714 10.6146857,10.2188571" id="Stroke-9"></path>
                    <path d="M10.4718286,10.8261143 C9.86554286,10.6906857 9.23582857,10.6192571 8.58897143,10.6192571 C3.84554286,10.6192571 -0.000171428571,14.4644 -0.000171428571,19.2078286 L7.47182857,19.2078286" id="Stroke-11"></path>
                </g>
            </g>
        </g>
    </g>
</svg>