<?xml version="1.0" encoding="UTF-8"?>
<svg width="56px" height="103px" viewBox="0 0 56 103" version="1.1" xmlns="http://www.w3.org/2000/svg" xmlns:xlink="http://www.w3.org/1999/xlink">
    <!-- Generator: Sketch 55.2 (78181) - https://sketchapp.com -->
    <title>Group</title>
    <desc>Created with Sketch.</desc>
    <defs>
        <polygon id="path-1" points="0 0 55.93432 0 55.93432 102.508435 0 102.508435"></polygon>
        <polygon id="path-3" points="0.21040339 0.187716849 3.76972542 0.187716849 3.76972542 23.7288136 0.21040339 23.7288136"></polygon>
        <polygon id="path-5" points="0.186318644 0.187716849 3.74564068 0.187716849 3.74564068 23.7288136 0.186318644 23.7288136"></polygon>
    </defs>
    <g id="Simulação" stroke="none" stroke-width="1" fill="none" fill-rule="evenodd" opacity="0.7">
        <g id="Sexo-1" transform="translate(-269.000000, -580.000000)">
            <g id="Group" transform="translate(269.000000, 580.000000)">
                <path d="M15.5414102,65.4915254 L39.5088088,65.4915254 C45.0094968,65.4915254 49.6257228,61.3674059 50.2130892,55.9275453 L53.0029791,30.107674 C54.6309836,15.0407416 42.7606023,1.89830508 27.5254106,1.89830508 C12.2896167,1.89830508 0.420038317,15.0407416 2.04784212,30.1068754 L4.8371298,55.9275453 C5.42509839,61.3674059 10.0415251,65.4915254 15.5414102,65.4915254" id="Fill-1" fill="#E6E6E6"></path>
                <path d="M53.1525424,83.1684686 L53.1525424,101.559322 L1.89830508,101.559322 L1.89830508,83.1684686 C1.89830508,75.8881952 5.86763782,69.5374851 11.7615138,66.1652329 C14.6221313,64.5282055 17.9336224,63.5932203 21.4645279,63.5932203 L33.5839107,63.5932203 C37.1870843,63.5932203 40.5644198,64.5673641 43.4633797,66.2688523 C49.2606972,69.6654029 53.1525424,75.9602871 53.1525424,83.1684686" id="Fill-3" fill="#E6E6E6"></path>
                <path d="M43.6610169,66.2138665 C43.0915867,74.2980589 36.2976951,80.6779661 28.0031734,80.6779661 C19.671364,80.6779661 12.8572419,74.2433801 12.3389831,66.1123765 C15.1645152,64.5089913 18.4363094,63.5932203 21.9258793,63.5932203 L33.8989877,63.5932203 C37.4597612,63.5924341 40.7960154,64.5465584 43.6610169,66.2138665" id="Fill-5" fill="#ABABAB"></path>
                <path d="M27.5254237,70.2372881 C24.9041195,70.2372881 22.779661,68.227318 22.779661,65.7472775 L22.779661,53.1525424 L32.2711864,53.1525424 L32.2711864,65.7472775 C32.2711864,68.227318 30.1458844,70.2372881 27.5254237,70.2372881" id="Fill-7" fill="#E6E6E6"></path>
                <path d="M55.0508475,38.4402707 C55.0508475,41.8476529 52.2885344,44.6101695 48.8809487,44.6101695 C45.4735666,44.6101695 42.7118644,41.8476529 42.7118644,38.4402707 C42.7118644,35.0328886 45.4735666,32.2711864 48.8809487,32.2711864 C52.2885344,32.2711864 55.0508475,35.0328886 55.0508475,38.4402707" id="Fill-9" fill="#E6E6E6"></path>
                <path d="M13.2881356,38.4402707 C13.2881356,41.8476529 10.5258226,44.6101695 7.11823683,44.6101695 C3.7108547,44.6101695 0.949152542,41.8476529 0.949152542,38.4402707 C0.949152542,35.0328886 3.7108547,32.2711864 7.11823683,32.2711864 C10.5258226,32.2711864 13.2881356,35.0328886 13.2881356,38.4402707" id="Fill-11" fill="#E6E6E6"></path>
                <path d="M8.54237288,20.8813559 L11.4910477,43.768328 C12.5311212,51.8401458 19.6085112,57.8983051 28,57.8983051 C36.3904701,57.8983051 43.4688788,51.8401458 44.5081374,43.768328 L47.4576271,20.8813559 L8.54237288,20.8813559 Z" id="Fill-13" fill="#E6E6E6"></path>
                <path d="M5.69491525,18.9830508 L5.69491525,25.6446063 C5.69491525,25.6446063 18.0731632,30.0879077 26.9887979,21.8536737 C26.9887979,21.8536737 30.4119912,32.8322527 45.1419636,35.0948638 C46.2669167,35.2680962 47.3154071,34.4758627 47.4655593,33.3379635 L49.3559322,18.9830508 L5.69491525,18.9830508 Z" id="Fill-15" fill="#E6E6E6"></path>
                <path d="M40.8135593,43.6613646 C40.8135593,44.709089 39.9633263,45.559322 38.9156019,45.559322 C37.8671821,45.559322 37.0169492,44.709089 37.0169492,43.6613646 C37.0169492,42.6129449 37.8671821,41.7627119 38.9156019,41.7627119 C39.9633263,41.7627119 40.8135593,42.6129449 40.8135593,43.6613646" id="Fill-17" fill="#ABABAB"></path>
                <path d="M18.9830508,43.6613646 C18.9830508,44.709089 18.1335376,45.559322 17.0846298,45.559322 C16.0359539,45.559322 15.1864407,44.709089 15.1864407,43.6613646 C15.1864407,42.6129449 16.0359539,41.7627119 17.0846298,41.7627119 C18.1335376,41.7627119 18.9830508,42.6129449 18.9830508,43.6613646" id="Fill-19" fill="#ABABAB"></path>
                <path d="M27.5258236,97.7627119 C25.4287912,97.7627119 23.7288136,96.063334 23.7288136,93.9665015 C23.7288136,91.8696691 25.4287912,90.1694915 27.5258236,90.1694915 C29.622656,90.1694915 31.3220339,91.8696691 31.3220339,93.9665015 C31.3220339,96.063334 29.622656,97.7627119 27.5258236,97.7627119 Z" id="Fill-21" fill="#EBEEF2"></path>
                <g id="Group-26">
                    <g id="Group-25">
                        <mask id="mask-2" fill="white">
                            <use xlink:href="#path-1"></use>
                        </mask>
                        <g id="Clip-24"></g>
                        <path d="M13.77272,66.6142513 C16.22272,65.3621263 18.99612,64.6551782 21.93052,64.6551782 L21.96632,64.6551782 L21.96632,66.0902968 C21.96632,69.4024017 24.65792,72.0974536 27.96712,72.0974536 C31.27572,72.0974536 33.96792,69.4032025 33.96792,66.0902968 L33.96792,64.6551782 L34.00392,64.6551782 C36.94072,64.6551782 39.71572,65.3629271 42.16792,66.6180553 C41.22572,73.6545013 35.15852,79.0438042 27.97032,79.0438042 C20.76252,79.0438042 14.71172,73.6591061 13.77272,66.6142513 Z M5.78752,45.5833964 C6.35632,45.7203413 6.94932,45.7954208 7.56012,45.7954208 C8.53512,45.7954208 9.49992,45.6030172 10.39612,45.2400331 C11.50932,51.6874557 16.04532,56.8711411 21.96632,58.9983922 L21.96632,61.6520002 L21.93052,61.6520002 C18.93672,61.6520002 16.08832,62.2838689 13.50852,63.4186697 C9.91872,62.3987905 7.25472,59.248657 6.85472,55.5205119 L5.78752,45.5833964 Z M8.95932,33.8836157 L9.98352,42.0915013 C9.25932,42.5489854 8.43132,42.7914419 7.55932,42.7914419 C5.04532,42.7914419 2.99992,40.7438752 2.99992,38.2272121 C2.99992,35.7105489 5.04532,33.6621814 7.55932,33.6621814 C8.04072,33.6629822 8.50932,33.7388625 8.95932,33.8836157 L8.95932,33.8836157 Z M29.89612,28.5199398 C32.33592,31.2378159 36.65552,34.6546316 43.66952,36.1444081 L42.68432,44.0357587 C41.75932,51.4514059 35.43212,57.0431231 27.96712,57.0431231 C20.50152,57.0431231 14.17492,51.4514059 13.24932,44.0357587 L11.26252,28.1125087 C15.55852,28.5029218 21.58292,28.0766708 26.85312,24.1521178 C27.45932,25.3189525 28.42892,26.8854102 29.89612,28.5199398 Z M46.65152,36.4777608 C47.20552,36.3854631 47.73352,36.1610256 48.19692,35.8128572 C48.86492,35.3107258 49.32432,34.6085828 49.51632,33.8077354 C51.47972,34.3168742 52.93432,36.1053667 52.93432,38.2272121 C52.93432,40.7438752 50.88832,42.7922428 48.37432,42.7922428 C47.50312,42.7922428 46.67492,42.5497862 45.95072,42.0915013 L46.65152,36.4777608 Z M24.96632,59.7874271 C25.94452,59.9548042 26.94612,60.0463011 27.96712,60.0463011 C28.98832,60.0463011 29.98992,59.9548042 30.96792,59.7874271 L30.96792,66.0902968 C30.96792,67.7466496 29.62192,69.0942756 27.96712,69.0942756 C26.31252,69.0942756 24.96632,67.7466496 24.96632,66.0902968 L24.96632,59.7874271 Z M45.76492,65.2674261 C48.15232,63.9536358 50.08212,61.8592195 51.16092,59.3151273 C51.48432,58.5511189 51.12812,57.669586 50.36572,57.3458434 C49.60312,57.0221008 48.72272,57.3786782 48.39932,58.142086 C47.31412,60.7017947 45.08752,62.6600669 42.42272,63.4178689 C39.84372,62.283068 36.99612,61.6520002 34.00392,61.6520002 L33.96792,61.6520002 L33.96792,58.9983922 C39.88672,56.8711411 44.42192,51.6906591 45.53672,45.2448381 C46.42812,45.6068212 47.38512,45.7954208 48.37432,45.7954208 C48.98432,45.7954208 49.57732,45.7203413 50.14612,45.5833964 L49.45472,52.0284165 C49.36572,52.8536898 49.96172,53.5934727 50.78592,53.6825669 C50.83992,53.6879727 50.89372,53.6911761 50.94772,53.6911761 C51.70392,53.6911761 52.35472,53.1195712 52.43752,52.3499568 L53.34212,43.9246411 C54.92892,42.536372 55.93432,40.4976146 55.93432,38.2272121 C55.93432,36.5370235 55.37732,34.9745701 54.43832,33.7130352 L54.84212,29.9496528 C55.78912,21.1247142 52.34452,12.3858667 45.62812,6.57251504 C45.00152,6.03054153 44.05392,6.09941441 43.51252,6.72667818 C42.97032,7.35394195 43.03912,8.30254576 43.66572,8.84451928 C49.63832,14.0139896 52.70152,21.783211 51.85932,29.6283127 L51.66712,31.4160044 C51.12192,31.1517248 50.54072,30.9507121 49.93292,30.8223763 L50.42192,27.1380775 C50.53052,26.3162078 49.95392,25.5606083 49.13212,25.4518932 C48.31092,25.3423773 47.55712,25.920389 47.44772,26.7424589 L46.61172,33.041925 C46.58512,33.2421369 46.46492,33.3586602 46.39612,33.4111157 C46.32572,33.4635712 46.17972,33.5472597 45.97892,33.5160267 C40.22352,32.6392989 35.59692,30.3196443 32.22732,26.6235331 C29.70472,23.8564049 28.86172,21.3023021 28.85552,21.2818805 C28.70152,20.7923625 28.30852,20.4153636 27.81332,20.2824229 C27.31872,20.1494822 26.78992,20.2784186 26.41172,20.6249854 C19.90312,26.5906983 11.30392,25.3447799 7.90772,24.5315193 C7.10232,24.3391157 6.29292,24.8364419 6.10072,25.6426951 C5.90772,26.4491485 6.40472,27.2594059 7.21012,27.4524102 C7.50072,27.5220839 7.82812,27.59396 8.18272,27.6652354 L8.56492,30.7278763 C8.23352,30.6840299 7.89852,30.6598042 7.55932,30.6598042 C6.37972,30.6598042 5.26252,30.9318922 4.26632,31.4160044 L4.07432,29.6283127 C3.34692,22.8507407 5.53912,16.0545489 10.08992,10.982782 C14.64072,5.91181589 21.15712,3.00313792 27.96712,3.00313792 C31.63592,3.00313792 35.15312,3.80638792 38.42192,5.39006377 C39.16712,5.75144619 40.06492,5.43851504 40.42572,4.69252564 C40.78672,3.94633602 40.47492,3.04858602 39.72892,2.6872036 C36.04932,0.904116737 32.09212,-4.00423729e-05 27.96712,-4.00423729e-05 C20.30712,-4.00423729e-05 12.97812,3.27142182 7.85932,8.97585826 C2.73992,14.6802947 0.27352,22.3251845 1.09212,29.9496528 L1.49612,33.7130352 C0.55712,34.9745701 -8e-05,36.5370235 -8e-05,38.2272121 C-8e-05,40.4976146 1.00552,42.536372 2.59212,43.9246411 L3.87112,55.8410511 C4.30232,59.8595034 6.71952,63.3702184 10.16632,65.2690278 C4.59932,69.0528318 0.93432,75.4407915 0.93432,82.6694409 L0.93432,88.8581898 C0.93432,89.6878678 1.60632,90.3597788 2.43432,90.3597788 C3.26252,90.3597788 3.93432,89.6878678 3.93432,88.8581898 L3.93432,82.6694409 C3.93432,76.836068 6.71952,71.6421718 11.02732,68.348086 C12.70932,76.2056008 19.71492,82.0469822 27.97032,82.0469822 C36.20392,82.0469822 43.22352,76.200996 44.91092,68.3512894 C49.21632,71.6461761 51.99932,76.8382703 51.99932,82.6694409 L51.99932,101.006846 C51.99932,101.835923 52.67112,102.508435 53.49932,102.508435 C54.32812,102.508435 54.99932,101.835923 54.99932,101.006846 L54.99932,82.6694409 C54.99932,75.4399907 51.33352,69.0512301 45.76492,65.2674261 L45.76492,65.2674261 Z" id="Fill-23" fill="#000000" mask="url(#mask-2)"></path>
                    </g>
                </g>
                <path d="M2.37288136,93.9661017 C1.58679322,93.9661017 0.949152542,94.6575193 0.949152542,95.509904 L0.949152542,100.964672 C0.949152542,101.817057 1.58679322,102.508475 2.37288136,102.508475 C3.15896949,102.508475 3.79661017,101.817057 3.79661017,100.964672 L3.79661017,95.509904 C3.79661017,94.6575193 3.15896949,93.9661017 2.37288136,93.9661017" id="Fill-26" fill="#000000"></path>
                <path d="M18.5202362,38.9152542 C18.5334095,38.9152542 18.5467711,38.9152542 18.5599444,38.9144874 C19.3392424,38.892825 19.9529326,38.2316424 19.931667,37.4378014 L19.9073904,36.5174367 C19.8861248,35.7237875 19.2383722,35.0946192 18.4577568,35.1193488 C17.6784588,35.141203 17.064016,35.8023856 17.0852815,36.5960348 L17.1103109,37.5163996 C17.1308237,38.2973964 17.7586281,38.9152542 18.5202362,38.9152542" id="Fill-28" fill="#000000"></path>
                <path d="M37.503287,38.9152542 C37.5164604,38.9152542 37.5298219,38.9152542 37.5429953,38.9144874 C38.3222933,38.892825 38.9359834,38.2316424 38.9147179,37.4378014 L38.8904412,36.5174367 C38.8691757,35.7237875 38.2208585,35.0946192 37.4408077,35.1193488 C36.6615097,35.141203 36.0470668,35.8023856 36.0683324,36.5960348 L36.0933617,37.5163996 C36.1138745,38.2973964 36.741679,38.9152542 37.503287,38.9152542" id="Fill-30" fill="#000000"></path>
                <path d="M28.0002953,47.4576271 C30.6914079,47.4576271 33.2430439,46.2081465 34.8243278,44.1152665 C35.3257005,43.4525673 35.1709558,42.5251443 34.4785251,42.0447269 C33.7863008,41.5643095 32.8190436,41.7125865 32.3178773,42.3760765 C31.3159573,43.7012772 29.7024864,44.4920877 28.0002953,44.4920877 C26.2981043,44.4920877 24.6838081,43.7012772 23.6827134,42.3760765 C23.1815471,41.7125865 22.2142899,41.5643095 21.5212402,42.0447269 C20.8296348,42.5251443 20.6740649,43.4525673 21.1754375,44.1152665 C22.7575468,46.2081465 25.3083575,47.4576271 28.0002953,47.4576271" id="Fill-32" fill="#000000"></path>
                <g id="Group-36" transform="translate(8.542373, 78.779661)">
                    <mask id="mask-4" fill="white">
                        <use xlink:href="#path-3"></use>
                    </mask>
                    <g id="Clip-35"></g>
                    <path d="M1.99006441,0.187716849 C1.00650508,0.187716849 0.21040339,0.857507478 0.21040339,1.68323031 L0.21040339,22.2333799 C0.21040339,23.0589033 1.00650508,23.7288933 1.99006441,23.7288933 C2.97267458,23.7288933 3.76972542,23.0589033 3.76972542,22.2333799 L3.76972542,1.68323031 C3.76972542,0.857507478 2.97267458,0.187716849 1.99006441,0.187716849" id="Fill-34" fill="#000000" mask="url(#mask-4)"></path>
                </g>
                <g id="Group-39" transform="translate(43.661017, 78.779661)">
                    <mask id="mask-6" fill="white">
                        <use xlink:href="#path-5"></use>
                    </mask>
                    <g id="Clip-38"></g>
                    <path d="M1.96597966,0.187716849 C0.982420339,0.187716849 0.186318644,0.857507478 0.186318644,1.68323031 L0.186318644,22.2333799 C0.186318644,23.0589033 0.982420339,23.7288933 1.96597966,23.7288933 C2.94858983,23.7288933 3.74564068,23.0589033 3.74564068,22.2333799 L3.74564068,1.68323031 C3.74564068,0.857507478 2.94858983,0.187716849 1.96597966,0.187716849" id="Fill-37" fill="#000000" mask="url(#mask-6)"></path>
                </g>
                <path d="M28.0003941,96.5973984 C26.7517695,96.5973984 25.7356854,95.5451475 25.7356854,94.2510751 C25.7356854,92.9570026 26.7517695,91.9039348 28.0003941,91.9039348 C29.2490188,91.9039348 30.2643146,92.9570026 30.2643146,94.2510751 C30.2643146,95.5451475 29.2490188,96.5973984 28.0003941,96.5973984 M31.1958564,89.9771229 L31.690892,86.2137739 C31.8008561,85.3753636 31.235073,84.6029232 30.4261077,84.4889566 C29.6153688,84.3739688 28.8726184,84.9611624 28.7616689,85.7997769 L28.3598467,88.8546131 C28.2406204,88.8466477 28.121197,88.8403162 28.0003941,88.8403162 C27.8795913,88.8403162 27.7593796,88.8466477 27.6409416,88.8546131 L27.2383311,85.7997769 C27.1281699,84.9611624 26.3830547,84.3739688 25.5738923,84.4889566 C24.7657152,84.6029232 24.1991439,85.3753636 24.3098963,86.2137739 L24.8049318,89.9771229 C23.5740433,90.9681014 22.779661,92.5150245 22.779661,94.2510751 C22.779661,97.2340183 25.1214235,99.6610169 28.0003941,99.6610169 C30.8785765,99.6610169 33.220339,97.2340183 33.220339,94.2510751 C33.220339,92.5150245 32.4259567,90.9681014 31.1958564,89.9771229" id="Fill-40" fill="#000000"></path>
            </g>
        </g>
    </g>
</svg>