<?xml version="1.0" encoding="UTF-8"?>
<svg width="292px" height="285px" viewBox="0 0 292 285" version="1.1" xmlns="http://www.w3.org/2000/svg" xmlns:xlink="http://www.w3.org/1999/xlink">
    <!-- Generator: Sketch 55.2 (78181) - https://sketchapp.com -->
    <title>Group 2</title>
    <desc>Created with Sketch.</desc>
    <defs>
        <polygon id="path-1" points="7.890625e-05 0.0359023438 202 0.0359023438 202 201.999842 7.890625e-05 201.999842"></polygon>
    </defs>
    <g id="Simulação" stroke="none" stroke-width="1" fill="none" fill-rule="evenodd">
        <g id="Mostrar-opções" transform="translate(-62.000000, -83.000000)">
            <g id="Group-2" transform="translate(62.000000, 83.000000)">
                <g id="Group-40" opacity="0.804943266" transform="translate(60.000000, 83.000000)">
                    <polygon id="Fill-1" fill="#B7C1C6" points="140.2762 126 156 141.7238 141.7238 156 126 140.2762"></polygon>
                    <g id="Group-39">
                        <path d="M197.18088,186.901289 L186.897028,197.186719 C184.417005,199.665164 180.397915,199.665164 177.918286,197.186719 L142.114575,161.38143 C139.636524,158.903379 139.636524,154.884289 142.114575,152.404266 L152.400005,142.118836 C154.879634,139.640785 158.899118,139.640785 161.377169,142.118836 L197.18088,177.924125 C199.660509,180.402176 199.660509,184.42166 197.18088,186.901289" id="Fill-2" fill="#5F9EEB"></path>
                        <path d="M161.378707,142.118915 L197.18084,177.922626 C199.660469,180.400677 199.660469,184.420161 197.18084,186.89979 L191.059293,193.021337 C193.539317,190.542891 193.539317,186.522223 191.059293,184.044173 L155.257161,148.24204 C152.777532,145.762016 148.758442,145.762016 146.278813,148.24204 L152.401543,142.118915 C154.879594,139.640864 158.900657,139.640864 161.378707,142.118915" id="Fill-4" fill="#3A82D0"></path>
                        <path d="M156.348434,79.6567668 C156.348434,122.014825 122.010407,156.351275 79.6535316,156.351275 C37.295473,156.351275 2.95902383,122.014825 2.95902383,79.6567668 C2.95902383,37.3002863 37.295473,2.96344258 79.6535316,2.96344258 C122.010407,2.96344258 156.348434,37.3002863 156.348434,79.6567668" id="Fill-6" fill="#5F9EEB"></path>
                        <path d="M79.6536895,145.814568 C61.9830293,145.814568 45.3697129,138.93197 32.8741191,126.437955 C7.08006055,100.642318 7.08006055,58.6724781 32.8741191,32.8788141 C45.3697129,20.3832203 61.9830293,13.5018062 79.6536895,13.5018062 C97.3243496,13.5018062 113.937666,20.3832203 126.43326,32.8788141 C152.227318,58.6724781 152.227318,100.642318 126.43326,126.437955 C113.937666,138.93197 97.3243496,145.814568 79.6536895,145.814568" id="Fill-8" fill="#3A82D0"></path>
                        <path d="M141.075735,79.6567668 C141.075735,113.580142 113.575723,141.078575 79.6535316,141.078575 C45.7317348,141.078575 18.231723,113.580142 18.231723,79.6567668 C18.231723,45.7349699 45.7317348,18.2361418 79.6535316,18.2361418 C113.575723,18.2361418 141.075735,45.7349699 141.075735,79.6567668" id="Fill-10" fill="#9FF4E4"></path>
                        <path d="M44.6513898,90.199707 L114.395441,90.199707 L116.235534,81.2272773 C120.999499,57.9882031 103.245593,36.2258594 79.5244016,36.2258594 C55.801632,36.2258594 38.0493039,57.9882031 42.8128742,81.2272773 L44.6513898,90.199707 Z" id="Fill-12" fill="#627687"></path>
                        <path d="M118.2854,93.7119426 C118.2854,98.6128098 114.312471,102.585739 109.411604,102.585739 C104.509158,102.585739 100.536229,98.6128098 100.536229,93.7119426 C100.536229,88.8094973 104.509158,84.8365676 109.411604,84.8365676 C114.312471,84.8365676 118.2854,88.8094973 118.2854,93.7119426" id="Fill-14" fill="#F8C298"></path>
                        <path d="M58.5108387,93.7119426 C58.5108387,98.6128098 54.537909,102.585739 49.6354637,102.585739 C44.7345965,102.585739 40.7616668,98.6128098 40.7616668,93.7119426 C40.7616668,88.8094973 44.7345965,84.8365676 49.6354637,84.8365676 C54.537909,84.8365676 58.5108387,88.8094973 58.5108387,93.7119426" id="Fill-16" fill="#F8C298"></path>
                        <path d="M79.5242438,123.43569 C67.4602672,123.43569 57.2841227,114.452214 55.7892438,102.480952 L51.37365,67.1364754 L107.673259,67.1364754 L103.257666,102.480952 C101.762787,114.45103 91.5866422,123.43569 79.5242438,123.43569" id="Fill-18" fill="#FFD6C0"></path>
                        <path d="M47.8338367,76.5652594 C47.8338367,76.5652594 59.9873719,79.9972867 71.1498445,71.8494273 C71.1498445,71.8494273 96.0759344,89.5232438 120.328954,72.4025602 C121.560286,71.5349859 121.527934,69.7012047 120.257938,68.890443 L105.191973,59.2875523 L47.8338367,59.2875523 L47.8338367,76.5652594 Z" id="Fill-20" fill="#627687"></path>
                        <path d="M169.54365,36.620509 C169.54365,50.4030637 158.372103,61.5746105 144.591127,61.5746105 C130.808572,61.5746105 119.637025,50.4030637 119.637025,36.620509 C119.637025,22.8395324 130.808572,11.6679855 144.591127,11.6679855 C158.372103,11.6679855 169.54365,22.8395324 169.54365,36.620509" id="Fill-22" fill="#EB5777"></path>
                        <g id="Group-26">
                            <mask id="mask-2" fill="white">
                                <use xlink:href="#path-1"></use>
                            </mask>
                            <g id="Clip-25"></g>
                            <path d="M135.977641,135.980561 C137.682016,134.276186 139.300384,132.503557 140.83077,130.671354 L150.247048,140.087631 L140.081555,150.253123 L130.665278,140.835268 C132.49472,139.304881 134.27011,137.688092 135.977641,135.980561 M166.584587,36.6206273 C166.584587,48.749307 156.718149,58.6157445 144.591048,58.6157445 C132.462368,58.6157445 122.59593,48.749307 122.59593,36.6206273 C122.59593,24.4931312 132.462368,14.6270883 144.591048,14.6270883 C156.718149,14.6270883 166.584587,24.4931312 166.584587,36.6206273 M199.273868,175.831373 L179.551645,156.109545 C178.396063,154.953569 176.523618,154.953569 175.367641,156.109545 C174.211665,157.265127 174.211665,159.139151 175.367641,160.293549 L195.08947,180.015377 C195.729005,180.656491 196.08211,181.507495 196.08211,182.412155 C196.08211,183.31642 195.729005,184.169002 195.08947,184.808538 L184.80404,195.093967 C183.483149,196.416436 181.333348,196.414858 180.012458,195.093967 L144.207169,159.290256 C142.886673,157.967788 142.886673,155.817987 144.207169,154.497491 L154.492993,144.211666 C155.813489,142.89117 157.964868,142.89117 159.285759,144.211666 L166.256337,151.182245 C167.412313,152.338221 169.284759,152.338221 170.440735,151.182245 C171.596317,150.026663 171.596317,148.153823 170.440735,146.998241 L163.470157,140.027663 C161.40163,137.961108 158.596907,137.074596 155.893579,137.362998 L144.483341,125.953944 C151.188794,116.588561 155.776798,105.885323 157.928177,94.4348422 C158.229993,92.8287055 157.173044,91.2817484 155.565329,90.9795375 C153.962743,90.6773266 152.413813,91.7346703 152.111997,93.3419906 C149.367243,107.950299 142.341036,121.247186 131.792059,131.796557 C117.86629,145.721932 99.3493602,153.392409 79.6535711,153.392409 C59.957782,153.392409 41.4412469,145.72351 27.5154773,131.796557 C13.5881297,117.869209 5.91804766,99.3526742 5.91804766,79.6568852 C5.91804766,59.9626742 13.5881297,41.4457445 27.5154773,27.5183969 C53.0290242,2.00485 93.382075,-1.18651328 122.47402,19.6218539 C120.556993,22.1089789 119.051462,24.9263266 118.055665,27.9748695 C106.362942,19.2644086 92.0738094,14.7920023 77.3495086,15.3190961 C61.0320906,15.898268 45.6824578,22.5808383 34.1301883,34.1346859 C23.22495,45.0383461 16.5916961,59.5034398 15.4515008,74.8668813 C15.3311688,76.4959008 16.5550047,77.9154242 18.1840242,78.0369398 C18.2578016,78.0416742 18.3319734,78.0448305 18.4057508,78.0448305 C19.9408719,78.0448305 21.2384852,76.8596586 21.3540828,75.3048109 C22.3897273,61.3557641 28.4122469,48.2206352 38.3141922,38.3186898 C48.8047781,27.8284984 62.7427781,21.7610023 77.5609773,21.2323305 C91.8950867,20.7237797 105.765227,25.4210687 116.768704,34.483057 C116.715048,35.1904516 116.677962,35.9010023 116.677962,36.6222055 C116.677962,48.912643 124.66722,59.3645648 135.721985,63.0802602 C141.792243,83.670057 136.185559,105.805233 120.993345,120.997448 C98.1996961,143.792674 61.1090242,143.792674 38.3141922,120.997448 C29.1969695,111.878647 23.4624578,100.322038 21.7300711,87.5719711 C21.5095281,85.9539984 20.0209617,84.818143 18.3994383,85.0382914 C16.7798875,85.2588344 15.6456102,86.7489789 15.8661531,88.3689242 C17.7741063,102.411475 24.089368,115.14142 34.1301883,125.181846 C46.6810164,137.732674 63.1680828,144.008483 79.6535711,144.008483 C96.1406375,144.008483 112.627704,137.732674 125.178927,125.181846 C141.168095,109.192678 147.516102,86.220307 142.210052,64.4256117 C142.995958,64.491893 143.788177,64.5337133 144.591048,64.5337133 C147.022938,64.5337133 149.38263,64.2192719 151.632641,63.6322094 C152.890013,69.3079359 153.475891,75.1213539 153.374102,80.9513422 C153.344907,82.5850961 154.64686,83.9336039 156.280614,83.9612211 L156.333087,83.9612211 C157.943563,83.9612211 159.262876,82.6711039 159.290493,81.0547094 C159.406091,74.4691938 158.706192,67.9010375 157.216048,61.5037133 C166.278036,56.8865141 172.502555,47.4702367 172.502555,36.6222055 C172.502555,21.2307523 159.982501,8.70911953 144.591048,8.70911953 C137.74238,8.70911953 131.464993,11.1934828 126.60279,15.3005531 C95.1219578,-7.72429062 51.0934539,-4.4275875 23.3298953,23.334393 C8.28523516,38.3790531 7.890625e-05,58.381393 7.890625e-05,79.6568852 C7.890625e-05,100.933561 8.28523516,120.935901 23.3298953,135.980561 C38.3741609,151.025221 58.3768953,159.310377 79.6535711,159.310377 C96.493743,159.310377 112.533805,154.11519 125.952602,144.4906 L137.358501,155.898077 C137.070493,158.601405 137.955032,161.406127 140.023165,163.474655 L175.826876,199.277971 C177.642114,201.093604 180.025083,201.999842 182.407657,201.999842 C184.790231,201.999842 187.175962,201.093604 188.989622,199.277971 L199.273868,188.99412 C201.032294,187.235694 202.000079,184.89928 202.000079,182.412155 C202.000079,179.926213 201.032294,177.589799 199.273868,175.831373" id="Fill-24" fill="#000000" mask="url(#mask-2)"></path>
                        </g>
                        <path d="M52.7777867,51.882398 C59.3613297,43.8130504 69.1094078,39.1848043 79.5242438,39.1848043 C93.2634,39.1848043 105.476904,47.368566 110.979037,59.4680504 L106.782408,56.7923395 C105.404705,55.9141129 103.575263,56.3192965 102.696642,57.6969996 C101.818416,59.0747027 102.223599,60.9041441 103.601302,61.7827652 L117.584279,70.6952262 C108.574763,76.665273 98.4755523,78.356234 87.5490094,75.7207652 C78.889443,73.6309332 72.9158453,69.4745465 72.8602164,69.4358824 C71.8229938,68.6992926 70.4330602,68.7083668 69.4053063,69.4591598 C61.593193,75.1613199 53.1999352,74.5233629 49.952943,73.9852223 C48.3408883,73.7189137 46.8168141,74.8082145 46.5501109,76.4202691 C46.2818297,78.0323238 47.3731031,79.5567926 48.9851578,79.8246793 C49.2853961,79.8739957 49.6262711,79.9248902 49.9943688,79.9726285 L50.2350328,81.8928121 C50.0361891,81.8821598 49.8357672,81.8774254 49.6353453,81.8774254 C48.3965172,81.8774254 47.2018766,82.068773 46.0786461,82.4246402 L45.711732,80.6322848 C43.6187438,70.4301012 46.1954273,59.9517457 52.7777867,51.882398 M113.336755,80.6322848 L112.968263,82.4246402 C111.845033,82.068773 110.650392,81.8774254 109.411564,81.8774254 C109.211142,81.8774254 109.01072,81.8821598 108.811877,81.8916285 L108.901435,81.1794996 C110.470091,80.7277613 112.015865,80.1821246 113.535599,79.5457457 C113.474052,79.9079254 113.410927,80.2716832 113.336755,80.6322848 M109.411564,99.6269918 C108.442201,99.6269918 107.515841,99.3957965 106.680619,98.9578668 L108.053587,87.9575465 C108.496252,87.8541793 108.947595,87.7953941 109.411564,87.7953941 C112.672365,87.7953941 115.326377,90.4494059 115.326377,93.7117848 C115.326377,96.9729801 112.672365,99.6269918 109.411564,99.6269918 M79.5226656,120.476785 C68.9736891,120.476785 60.0336109,112.583004 58.7249508,102.114117 L55.9865094,80.1884371 C60.3354273,79.9540855 65.8111266,78.8123121 71.2035797,75.3925152 C73.7972281,76.9442066 79.0725055,79.7307809 85.9385328,81.4197691 C89.7465484,82.3567809 93.5131383,82.8223277 97.2027945,82.8223277 C99.0827359,82.8223277 100.941373,82.6929215 102.77831,82.4522574 L100.321959,102.114117 C99.0148766,112.583004 90.0732203,120.476785 79.5226656,120.476785 M43.7205328,93.7117848 C43.7205328,90.4494059 46.3745445,87.7953941 49.6353453,87.7953941 C50.0977359,87.7953941 50.5506578,87.8541793 50.9933219,87.9575465 L52.3662906,98.9578668 C51.531068,99.3957965 50.6031305,99.6269918 49.6353453,99.6269918 C46.3745445,99.6269918 43.7205328,96.9729801 43.7205328,93.7117848 M49.6353453,105.544566 C50.8544469,105.544566 52.061318,105.345722 53.2125602,104.980386 C55.773857,117.328031 66.7220992,126.394754 79.5226656,126.394754 C92.3248102,126.394754 103.273052,117.328031 105.834349,104.980386 C106.985591,105.345722 108.192462,105.544566 109.409986,105.544566 C115.935138,105.544566 121.244345,100.237332 121.244345,93.7117848 C121.244345,90.7236051 120.128611,87.9926598 118.296013,85.9075621 L119.132814,81.8206129 C119.510775,79.9773629 119.754201,78.1080738 119.875716,76.247859 C120.603232,75.7929645 121.324435,75.3214996 122.034986,74.8208395 C123.423341,73.8404293 124.229369,72.2409996 124.187943,70.5456988 C124.147701,68.8551324 123.274209,67.3046246 121.846795,66.3952301 L118.915822,64.525941 C114.674611,46.3388395 98.3169508,33.2668355 79.5226656,33.2668355 C67.3229703,33.2668355 55.9048414,38.6888785 48.1929391,48.1422418 C40.4810367,57.594027 37.4636617,69.8706559 39.9125172,81.8206129 L40.7508961,85.9075621 C38.9167203,87.9926598 37.8009859,90.7236051 37.8009859,93.7117848 C37.8025641,100.237332 43.110193,105.544566 49.6353453,105.544566" id="Fill-27" fill="#000000"></path>
                        <path d="M69.4914324,93.1217238 L69.4527684,91.7148254 C69.4081863,90.0810715 68.0411355,88.7909543 66.4136941,88.8390871 C64.7803348,88.8836691 63.4917957,90.2444074 63.5363777,91.8781613 L63.5750418,93.2850598 C63.6196238,94.890802 64.934202,96.1623762 66.5308699,96.1623762 C66.5584871,96.1623762 66.5864988,96.1623762 66.614116,96.160798 C68.2478699,96.116216 69.5360145,94.7554777 69.4914324,93.1217238" id="Fill-29" fill="#000000"></path>
                        <path d="M92.4328328,88.8388898 C90.7990789,88.8834719 89.5125125,90.2446047 89.5555164,91.8779641 L89.5957586,93.285257 C89.6387625,94.8909992 90.9549187,96.1621789 92.5515867,96.1621789 C92.5776258,96.1621789 92.6068211,96.1621789 92.6332547,96.1609953 C94.2666141,96.1160188 95.5551531,94.7552805 95.5105711,93.1215266 L95.471907,91.7146281 C95.427325,90.0808742 94.0709266,88.7911516 92.4328328,88.8388898" id="Fill-31" fill="#000000"></path>
                        <path d="M89.1686785,99.2307641 C87.8450262,98.2720531 85.9954637,98.5663734 85.0351746,99.8919984 C83.7576824,101.656342 81.6958621,102.71053 79.522784,102.71053 C77.351284,102.71053 75.2890691,101.656342 74.0099988,99.8919984 C73.0512879,98.5679516 71.203698,98.2720531 69.878073,99.2307641 C68.5559988,100.189475 68.2601004,102.038643 69.2172332,103.362295 C71.6057254,106.660577 75.4587176,108.628498 79.522784,108.628498 C83.588034,108.628498 87.439448,106.660577 89.8283348,103.362295 C90.7870457,102.038643 90.4911473,100.189475 89.1686785,99.2307641" id="Fill-33" fill="#000000"></path>
                        <path d="M133.101903,39.5794934 L134.609013,39.5794934 L134.609013,41.0881809 C134.609013,42.7219348 135.934638,44.0471652 137.567997,44.0471652 C139.203329,44.0471652 140.526981,42.7219348 140.526981,41.0881809 L140.526981,39.5794934 L142.034485,39.5794934 C143.669423,39.5794934 144.99347,38.255841 144.99347,36.620509 C144.99347,34.9867551 143.669423,33.6615246 142.034485,33.6615246 L140.526981,33.6615246 L140.526981,32.1544152 C140.526981,30.5206613 139.203329,29.1954309 137.567997,29.1954309 C135.934638,29.1954309 134.609013,30.5206613 134.609013,32.1544152 L134.609013,33.6615246 L133.101903,33.6615246 C131.466571,33.6615246 130.142919,34.9867551 130.142919,36.620509 C130.142919,38.255841 131.468149,39.5794934 133.101903,39.5794934" id="Fill-35" fill="#000000"></path>
                        <path d="M150.257858,33.5613531 L150.274823,33.5613531 L150.274823,41.2409039 C148.693541,41.3024508 147.429858,42.5984859 147.429858,44.1951539 C147.429858,45.8289078 148.75351,47.1541383 150.388842,47.1541383 L156.078772,47.1541383 C157.713709,47.1541383 159.037756,45.8289078 159.037756,44.1951539 C159.037756,42.5984859 157.774073,41.3024508 156.192791,41.2409039 L156.192791,29.0475211 C156.192791,28.0118766 155.651889,27.0531656 154.76735,26.5169977 C153.882811,25.9804352 152.782069,25.9449273 151.865178,26.4242828 L148.887651,27.9779469 C147.438932,28.7330797 146.876725,30.5207008 147.633436,31.9694195 C148.16053,32.9817867 149.19144,33.5613531 150.257858,33.5613531" id="Fill-37" fill="#000000"></path>
                    </g>
                </g>
                <polygon id="Fill-1" fill="#DCDCDC" points="236.52328 70 236.52328 75.52444 231 75.52444 231 81.04772 236.52328 81.04772 236.52328 86.571 242.04714 86.571 242.04714 81.04772 247.571 81.04772 247.571 75.52444 242.04714 75.52444 242.04714 70"></polygon>
                <polygon id="Fill-1-Copy" fill="#DCDCDC" points="283.19004 146 283.19004 150.19092 279 150.19092 279 154.38096 283.19004 154.38096 283.19004 158.571 287.38052 158.571 287.38052 154.38096 291.571 154.38096 291.571 150.19092 287.38052 150.19092 287.38052 146"></polygon>
                <polygon id="Fill-1-Copy-2" fill="#DCDCDC" points="32.19004 47 32.19004 51.19092 28 51.19092 28 55.38096 32.19004 55.38096 32.19004 59.571 36.38052 59.571 36.38052 55.38096 40.571 55.38096 40.571 51.19092 36.38052 51.19092 36.38052 47"></polygon>
                <polygon id="Fill-1" fill="#DCDCDC" points="157.18983 53 157.18983 60.19134 150 60.19134 150 67.38117 157.18983 67.38117 157.18983 74.571 164.380415 74.571 164.380415 67.38117 171.571 67.38117 171.571 60.19134 164.380415 60.19134 164.380415 53"></polygon>
                <polygon id="Fill-1-Copy-5" fill="#5F9EEB" points="56.18983 6 56.18983 13.19134 49 13.19134 49 20.38117 56.18983 20.38117 56.18983 27.571 63.380415 27.571 63.380415 20.38117 70.571 20.38117 70.571 13.19134 63.380415 13.19134 63.380415 6"></polygon>
                <polygon id="Fill-1-Copy-4" fill="#EB5777" opacity="0.335797991" points="236.66627 0 236.66627 5.66746001 231 5.66746001 231 11.33373 236.66627 11.33373 236.66627 17 242.333135 17 242.333135 11.33373 248 11.33373 248 5.66746001 242.333135 5.66746001 242.333135 0"></polygon>
                <polygon id="Fill-1-Copy-3" fill="#DCDCDC" points="6.52321 135 6.52321 141.52458 -4.4408921e-14 141.52458 -4.4408921e-14 148.04779 6.52321 148.04779 6.52321 154.571 13.047105 154.571 13.047105 148.04779 19.571 148.04779 19.571 141.52458 13.047105 141.52458 13.047105 135"></polygon>
            </g>
        </g>
    </g>
</svg>