
<?xml version="1.0" encoding="UTF-8"?>
<svg width="61px" height="107px" viewBox="0 0 61 107" version="1.1" xmlns="http://www.w3.org/2000/svg" xmlns:xlink="http://www.w3.org/1999/xlink">
    <!-- Generator: Sketch 55.2 (78181) - https://sketchapp.com -->
    <title>Group 19</title>
    <desc>Created with Sketch.</desc>
    <defs>
        <polygon id="path-1" points="0 107 61 107 61 0 0 0"></polygon>
    </defs>
    <g id="Simulação" stroke="none" stroke-width="1" fill="none" fill-rule="evenodd">
        <g id="Sexo-2" transform="translate(-89.000000, -578.000000)">
            <g id="Group-19" transform="translate(89.000000, 578.000000)">
                <path d="M59,105 L2,105 L2,80.2690329 C2,72.9410565 8.0499755,67 15.5141737,67 L45.4858263,67 C52.9491846,67 59,72.9410565 59,80.2690329 L59,105 Z" id="Fill-1" fill="#EBEEF2"></path>
                <path d="M58,80.2701456 L58,105 L53.4255849,105 L53.4255849,80.2701456 C53.4255849,72.9420101 47.413139,67 40,67 L44.5767096,67 C51.9900571,67 58,72.9420101 58,80.2701456" id="Fill-3" fill="#D3D8DF"></path>
                <mask id="mask-2" fill="white">
                    <use xlink:href="#path-1"></use>
                </mask>
                <g id="Clip-6"></g>
                <polygon id="Fill-5" fill="#7FB7EA" mask="url(#mask-2)" points="13 105 48 105 48 92 13 92"></polygon>
                <path d="M30.5007179,75 C28.0151795,75 26,72.8825305 26,70.2697629 L26,57 L35,57 L35,70.2697629 C35.0006152,72.8825305 32.9854358,75 30.5007179,75" id="Fill-7" fill="#E39F6E" mask="url(#mask-2)"></path>
                <path d="M5.84920561,39 L55.150793,39 L56.4508693,32.8489531 C59.8186213,16.9188067 47.2689873,2 30.5005303,2 C13.7310112,2 1.18137726,16.9188067 4.54912929,32.8489531 L5.84920561,39 Z" id="Fill-8" fill="#627687" mask="url(#mask-2)"></path>
                <path d="M57,41.5004401 C57,45.0901073 54.0901073,48 50.5004401,48 C46.9105529,48 44,45.0901073 44,41.5004401 C44,37.9107729 46.9105529,35 50.5004401,35 C54.0901073,35 57,37.9107729 57,41.5004401" id="Fill-9" fill="#E39F6E" mask="url(#mask-2)"></path>
                <path d="M17,41.5004401 C17,45.0901073 14.0892271,48 10.4995599,48 C6.90967261,48 4,45.0901073 4,41.5004401 C4,37.9107729 6.90967261,35 10.4995599,35 C14.0892271,35 17,37.9107729 17,41.5004401" id="Fill-10" fill="#E39F6E" mask="url(#mask-2)"></path>
                <path d="M30.5004163,63 C22.143095,63 15.0945712,56.7769345 14.0588562,48.4845093 L11,24 L50,24 L46.9419764,48.4845093 C45.9062613,56.7769345 38.856905,63 30.5004163,63" id="Fill-11" fill="#F8C298" mask="url(#mask-2)"></path>
                <path d="M8,30.5903291 C8,30.5903291 16.4440069,33.0923658 24.2007183,27.1543535 C24.2007183,27.1543535 41.5202753,40.0337329 58.3723795,27.557929 C59.2279498,26.9250841 59.2060281,25.5880076 58.3235255,24.9978633 L47.8545854,18 L8,18 L8,30.5903291 Z" id="Fill-12" fill="#627687" mask="url(#mask-2)"></path>
                <path d="M30.634337,72.920082 C28.9644621,72.920082 27.6052373,71.5664902 27.6052373,69.9027656 L27.6052373,63.5362656 C28.5925631,63.7011543 29.6035915,63.7916445 30.634337,63.7916445 C31.6543849,63.7916445 32.6670913,63.7042891 33.6619684,63.5377285 L33.6619684,69.9027656 C33.6619684,71.5664902 32.3042119,72.920082 30.634337,72.920082 M5.14719286,41.5504824 C5.14719286,39.0106953 7.22105956,36.9444668 9.76918665,36.9444668 C10.2484812,36.9444668 10.7156099,37.0180293 11.1638604,37.1593027 L12.2053035,45.4630879 C11.4759787,45.916166 10.6426145,46.1554531 9.76918665,46.1554531 C7.22022053,46.1554531 5.14719286,44.0900605 5.14719286,41.5504824 M54.7211439,32.5518242 L54.3507132,34.3534785 C53.4667975,34.0040566 52.5048523,33.8105371 51.4986483,33.8105371 C51.1676519,33.8105371 50.8398018,33.8335254 50.5153079,33.8742773 L50.7061867,32.354334 C52.1761632,31.9313496 53.616564,31.3892441 55.0219353,30.7305254 C54.9424375,31.3403418 54.8457395,31.9484863 54.7211439,32.5518242 M51.4986483,46.1554531 C50.6218644,46.1554531 49.7910172,45.9144941 49.0633704,45.461416 L50.1039745,37.1593027 C50.5522251,37.0180293 51.0193537,36.9444668 51.4986483,36.9444668 C54.0476144,36.9444668 56.1206421,39.0106953 56.1206421,41.5504824 C56.1206421,44.0900605 54.0476144,46.1554531 51.4986483,46.1554531 M45.2804043,65.3469063 L36.8089515,65.3469063 L36.8089515,62.7183008 C38.0987468,62.2562363 39.3392493,61.6495547 40.5075953,60.9009727 C41.2377592,60.4332656 41.4491942,59.4633691 40.9795484,58.7352676 C40.5092734,58.007166 39.5360013,57.7965098 38.8049984,58.2650527 C36.3625888,59.8299277 33.5365338,60.6568789 30.633498,60.6568789 C23.021629,60.6568789 16.5690866,54.9816992 15.6260194,47.4557539 L13.6457043,31.6644766 C16.7150774,31.5282187 20.6455026,30.7395117 24.4932836,28.2308633 C26.1589633,29.2496621 29.9207439,31.3027246 34.9056172,32.5248652 C37.5244324,33.1664473 40.1119938,33.4849395 42.6477452,33.4849395 C44.270215,33.4849395 45.8696115,33.3501445 47.4427885,33.0905859 L45.6418155,47.4557539 C45.3492046,49.794707 44.5372356,51.9719062 43.231289,53.928627 C42.7494773,54.6485781 42.9460196,55.6218184 43.6688419,56.1016465 C43.9367015,56.2797012 44.2398003,56.3645488 44.5389136,56.3645488 C45.0477839,56.3645488 45.5467956,56.1187832 45.8498944,55.6650781 C47.2609292,53.553082 48.1924597,51.2272949 48.6274956,48.7407988 C49.5353235,49.1006699 50.5104834,49.2902187 51.4978093,49.2902187 C55.7814652,49.2902187 59.2669959,45.8181523 59.2669959,41.5504824 C59.2669959,39.509541 58.4688708,37.6514609 57.1685877,36.2669395 L57.8035219,33.1821211 C58.0936157,31.7706406 58.2746359,30.3361719 58.3442752,28.9100625 C58.8015453,28.622709 59.2554593,28.3255332 59.7037098,28.0103848 C60.5385424,27.4235566 61.0228711,26.4659902 60.9991686,25.4496992 C60.974627,24.4382148 60.4493957,23.5090703 59.5923289,22.965502 L57.7561168,21.7989512 C56.458141,15.8199082 53.1462889,10.365207 48.4030556,6.41080469 C43.4450313,2.27688477 37.1342845,0 30.634337,0 C25.1552764,0 19.8662556,1.58138477 15.3384427,4.57236914 C14.6149911,5.05073437 14.4167708,6.02376562 14.8969044,6.74559766 C15.377877,7.4672207 16.3536662,7.663875 17.0779569,7.18550977 C21.0878799,4.53558789 25.7755276,3.13476562 30.634337,3.13476562 C36.4813112,3.13476562 41.9276497,5.09900977 46.3849843,8.81496094 C49.724734,11.5994687 52.2606952,15.2232578 53.7419986,19.2495508 L49.0749071,16.2861523 C48.3424359,15.8207441 47.369793,16.0355801 46.9028741,16.7653535 C46.4357455,17.495127 46.6511658,18.4641875 47.3838468,18.9293867 L57.775834,25.5286953 C51.202052,30.107752 43.7965839,31.4465059 35.763523,29.5060859 C29.6346355,28.0260586 25.4149555,25.0944258 25.3748919,25.0660039 C24.823441,24.676457 24.0836283,24.6814727 23.5370018,25.0789609 C17.9333456,29.1541562 11.9143707,28.6994062 9.5873274,28.315084 C8.73026061,28.1729746 7.91996962,28.7501895 7.77817394,29.6038906 C7.63553923,30.4578008 8.21488785,31.2653164 9.07195464,31.4072168 C9.45539029,31.4701211 9.92503604,31.5346973 10.4649504,31.5861074 L10.7516881,33.8734414 C10.4280331,33.8326895 10.1001831,33.8097012 9.76918665,33.8097012 C8.76235342,33.8097012 7.80040818,34.0040566 6.91712178,34.3526426 L6.54669105,32.5518242 C4.98085562,24.944375 7.04570277,17.2389121 12.210128,11.4109648 C12.7852814,10.7618594 12.7238227,9.77169141 12.0725274,9.19865625 C11.4210224,8.62562109 10.4271941,8.68768945 9.85204063,9.33658594 C4.0270909,15.9097715 1.6985793,24.6005957 3.46431308,33.1812852 L4.09924728,36.2661035 C2.79896412,37.650625 2,39.5087051 2,41.5496465 C2,45.8175254 5.48553078,49.2902187 9.76918665,49.2902187 C10.7680491,49.2902187 11.7364968,49.1031777 12.6403394,48.7439336 C13.7948415,55.2861895 18.4216597,60.5434004 24.4588834,62.7132852 L24.4588834,65.3460703 L15.3409598,65.3460703 C12.2887868,65.3460703 9.34883378,66.2505547 6.83846293,67.9615098 C6.12151377,68.4505332 5.93797646,69.4252363 6.42880766,70.1403809 C6.73358447,70.5836367 7.22672299,70.8229238 7.72825179,70.8229238 C8.03470666,70.8229238 8.34346885,70.7338965 8.61552358,70.5485273 C10.6000338,69.1959805 12.9253991,68.4808359 15.3409598,68.4808359 L24.4588834,68.4808359 L24.4588834,69.9021387 C24.4588834,73.294791 27.2291431,76.0540117 30.633498,76.0540117 C34.0386918,76.0540117 36.8083222,73.294791 36.8083222,69.9021387 L36.8083222,68.4808359 L45.2795653,68.4808359 C51.8558643,68.4808359 57.2063439,73.8116094 57.2063439,80.3643145 L57.2063439,105.432617 C57.2063439,106.298021 57.9109174,107 58.7795208,107 C59.6487535,107 60.3526978,106.298021 60.3526978,105.432617 L60.3526978,80.3643145 C60.3535368,72.0841445 53.5911834,65.3469063 45.2804043,65.3469063" id="Fill-13" fill="#000000" mask="url(#mask-2)"></path>
                <path d="M3.9245154,73.1388176 C3.006967,72.7814364 1.92998213,73.1379742 1.51865059,73.9343334 C0.511070333,75.8871738 0,77.9709486 0,80.1272539 L0,105.418667 C0,106.291563 0.815140194,107 1.82005104,107 C2.82496189,107 3.64010209,106.291563 3.64010209,105.418667 L3.64010209,80.1272539 C3.64010209,78.4198363 4.04391074,76.7716659 4.84012241,75.2282852 C5.25169662,74.431926 4.8410931,73.4961988 3.9245154,73.1388176" id="Fill-14" fill="#000000" mask="url(#mask-2)"></path>
                <path d="M20.9282064,38.0008255 C19.8342462,38.0295301 18.9708719,38.9059098 19.0007528,39.9575654 L19.033807,41.1474096 C19.0636879,42.1812836 19.9458371,43 21.0159982,43 C21.0334508,43 21.0522256,43 21.0707359,42.9989839 C22.1657538,42.9700253 23.0291281,42.0938996 22.9992472,41.0432601 L22.9651353,39.8534159 C22.9352544,38.8015063 22.0250753,37.9700887 20.9282064,38.0008255" id="Fill-15" fill="#000000" mask="url(#mask-2)"></path>
                <path d="M38.9292641,38.0008255 C37.8342462,38.0295301 36.9708719,38.9059098 37.0007528,39.9575654 L37.0348647,41.1474096 C37.0636879,42.1812836 37.9458371,43 39.0159982,43 C39.0337152,43 39.0522256,43 39.0707359,42.9989839 C40.1657538,42.9700253 41.0291281,42.0938996 40.9992472,41.0432601 L40.9651353,39.8534159 C40.9352544,38.8015063 40.0253397,37.9700887 38.9292641,38.0008255" id="Fill-16" fill="#000000" mask="url(#mask-2)"></path>
                <path d="M34.9899173,46.6539912 C33.9488245,48.0211188 32.269993,48.837305 30.5004679,48.837305 C28.7300558,48.837305 27.0521113,48.0211188 26.0110185,46.6539912 C25.4721781,45.9466017 24.4319723,45.788467 23.687796,46.3006127 C22.9438415,46.8129693 22.7775328,47.8020495 23.3161514,48.5088064 C24.9810129,50.6954937 27.6672319,52 30.5004679,52 C33.3337038,52 36.0190359,50.6954937 37.6836756,48.5088064 C38.222516,47.8020495 38.0562073,46.8129693 37.3122528,46.3006127 C36.5680765,45.788467 35.5287577,45.9466017 34.9899173,46.6539912" id="Fill-17" fill="#000000" mask="url(#mask-2)"></path>
                <path d="M47.430634,83 C46.5632978,83 45.861268,83.6981614 45.861268,84.55886 L45.861268,91.2700638 L14.138732,91.2700638 L14.138732,84.55886 C14.138732,83.6981614 13.4358652,83 12.569366,83 C11.703076,83 11,83.6981614 11,84.55886 L11,105.44114 C11,106.301631 11.703076,107 12.569366,107 C13.4358652,107 14.138732,106.301631 14.138732,105.44114 L14.138732,94.3877837 L45.861268,94.3877837 L45.861268,105.44114 C45.861268,106.301631 46.5632978,107 47.430634,107 C48.2971333,107 49,106.301631 49,105.44114 L49,84.55886 C49,83.6981614 48.2971333,83 47.430634,83" id="Fill-18" fill="#000000" mask="url(#mask-2)"></path>
            </g>
        </g>
    </g>
</svg>