<?xml version="1.0" encoding="UTF-8"?>
<svg width="36px" height="34px" viewBox="0 0 36 34" version="1.1" xmlns="http://www.w3.org/2000/svg" xmlns:xlink="http://www.w3.org/1999/xlink">
    <!-- Generator: Sketch 55.2 (78181) - https://sketchapp.com -->
    <title>Group 11</title>
    <desc>Created with Sketch.</desc>
    <g id="Simulação" stroke="none" stroke-width="1" fill="none" fill-rule="evenodd" opacity="0.796433222" stroke-linecap="round" stroke-linejoin="round">
        <g id="Opções-1" transform="translate(-173.000000, -623.000000)" stroke="#3E3E3E" stroke-width="2">
            <g id="Group-5" transform="translate(144.000000, 624.000000)">
                <g id="Group-11" transform="translate(30.000000, 0.000000)">
                    <path d="M0.000101492537,14.5425104 C0.113265672,13.6914955 2.32529552,13.5214955 2.60896716,14.5425104 C2.89213134,15.5635254 3.06263881,21.1212567 3.34580299,21.4612567 C3.62947463,21.8017642 6.29517612,24.353794 7.42935522,24.0132866 C8.56353433,23.6732866 8.67720597,23.3277045 8.50669851,23.0749881 C8.33669851,22.8222716 4.87732537,21.0644209 4.70681791,20.2139134 C4.53681791,19.3628985 4.2445194,17.8633463 4.76365373,17.7750478 C5.28329552,17.6867493 13.2139224,23.395197 13.497594,24.0447493 C13.7812657,24.693794 14.858609,29.9115254 14.6317731,30.3083612 C14.4049373,30.7057045 8.22353433,31.8962119 8.10986269,31.4993761 C7.99619104,31.1025403 7.93986269,28.2668388 7.59935522,28.040003 C7.25935522,27.8131672 0.907444776,23.5540328 0.680608955,23.0749881 C0.453773134,22.5954358 0.000101492537,14.5425104 0.000101492537,14.5425104 Z" id="Stroke-1"></path>
                    <path d="M2.76881791,15.6416746 C2.69168358,14.9850179 4.30998209,14.7125104 4.48048955,15.2230179 C4.65048955,15.7335254 4.76365373,17.7750478 4.76365373,17.7750478" id="Stroke-3"></path>
                    <path d="M33.9842179,14.5425104 C33.8705463,13.6914955 31.6590239,13.5214955 31.3753522,14.5425104 C31.0916806,15.5635254 30.9216806,21.1212567 30.638009,21.4612567 C30.3543373,21.8017642 27.6891433,24.353794 26.5549642,24.0132866 C25.4207851,23.6732866 25.3071134,23.3277045 25.4771134,23.0749881 C25.6476209,22.8222716 29.106994,21.0644209 29.276994,20.2139134 C29.446994,19.3628985 29.7392925,17.8633463 29.2201582,17.7750478 C28.7010239,17.6867493 20.7698896,23.395197 20.4867254,24.0447493 C20.2030537,24.693794 19.1257104,29.9115254 19.3525463,30.3083612 C19.5793821,30.7057045 25.7607851,31.8962119 25.8744567,31.4993761 C25.9876209,31.1025403 26.0444567,28.2668388 26.3844567,28.040003 C26.7249642,27.8131672 33.0763672,23.5540328 33.3037104,23.0749881 C33.5305463,22.5954358 33.9842179,14.5425104 33.9842179,14.5425104 Z" id="Stroke-5"></path>
                    <path d="M31.2152478,15.6416746 C31.2923821,14.9850179 29.6740836,14.7125104 29.5035761,15.2230179 C29.3335761,15.7335254 29.2204119,17.7750478 29.2204119,17.7750478" id="Stroke-7"></path>
                    <path d="M16.4202746,18.5028507 C16.4202746,18.5028507 7.76803582,11.5602537 6.53084179,7.61320896 C5.47176716,4.79171642 6.53084179,0.513298507 10.3900955,0.0438955224 C14.2498567,-0.425 16.4202746,2.99732836 16.4202746,2.99732836 C16.4202746,2.99732836 18.5912,-0.425 22.4504537,0.0438955224 C26.3097075,0.513298507 27.3687821,4.79171642 26.3097075,7.61320896 C25.0725134,11.5602537 16.4202746,18.5028507 16.4202746,18.5028507 Z" id="Stroke-9"></path>
                </g>
            </g>
        </g>
    </g>
</svg>