<?xml version="1.0" encoding="UTF-8"?>
<svg width="288px" height="271px" viewBox="0 0 288 271" version="1.1" xmlns="http://www.w3.org/2000/svg" xmlns:xlink="http://www.w3.org/1999/xlink">
    <!-- Generator: Sketch 55.2 (78181) - https://sketchapp.com -->
    <title>Group 2</title>
    <desc>Created with Sketch.</desc>
    <defs>
        <polygon id="path-1" points="0 6.9140625e-05 131.66537 6.9140625e-05 131.66537 177 0 177"></polygon>
    </defs>
    <g id="Simulação" stroke="none" stroke-width="1" fill="none" fill-rule="evenodd">
        <g id="Confirme-TEL" transform="translate(-66.000000, -86.000000)">
            <g id="Group-2" transform="translate(66.000000, 86.000000)">
                <g id="Group-42" opacity="0.801641555" transform="translate(76.000000, 94.000000)">
                    <path d="M12,143 L12,170.541595 C12,172.45103 13.535834,174 15.4322312,174 L122.135194,174 C125.926268,174 129,170.90206 129,167.082846 L129,143 L12,143 Z" id="Fill-1" fill="#EB5777"></path>
                    <path d="M121.003018,143 L121.003018,167.08254 C121.003018,170.904669 117.868805,174 114,174 L121.996982,174 C125.865787,174 129,170.904669 129,167.08254 L129,143 L121.003018,143 Z" id="Fill-3" fill="#CE3F63"></path>
                    <path d="M113.535713,165 L15.4629053,165 C13.5505855,165 12,163.454359 12,161.54676 L12,145 L117,145 L117,161.54676 C117,163.454359 115.449414,165 113.535713,165" id="Fill-5" fill="#EBEEF2"></path>
                    <path d="M122.102772,154 L15.4484421,154 C13.5441093,154 12,152.455317 12,150.5489 L12,6.45006758 C12,4.54502727 13.5441093,3 15.4484421,3 L122.102772,3 C125.911437,3 129,6.08971036 129,9.90116771 L129,147.099176 C129,150.91029 125.912813,154 122.102772,154" id="Fill-7" fill="#ED7A98"></path>
                    <path d="M129,9.93463227 L129,147.065712 C129,150.897175 125.865787,154 121.996982,154 L114,154 C117.868805,154 121.003018,150.897175 121.003018,147.065712 L121.003018,9.93463227 C121.003018,6.10695481 117.868805,3 114,3 L121.996982,3 C125.865787,3 129,6.10695481 129,9.93463227" id="Fill-9" fill="#EB5777"></path>
                    <path d="M31.963854,50.3181722 L44.3039617,37.9795505 C45.6069179,36.6748708 47.7217506,36.6720963 49.027828,37.9795505 L61.5493161,50.5009383 C62.8536594,51.8042308 62.8536594,53.9214742 61.5493161,55.2247667 L54.1605803,62.6134433 C52.9672154,63.8067987 52.8427115,65.6979253 53.881747,67.0254942 C57.8859875,72.139478 62.4770264,77.3360013 67.5709363,82.4298704 C72.6631122,87.5220055 77.860024,92.1147417 82.9740487,96.1179097 C84.3016282,97.1583241 86.1941572,97.0320872 87.3864817,95.840119 L94.7745238,88.4500552 C96.079214,87.1467627 98.1954339,87.1467627 99.4983901,88.4500552 L112.021612,100.973177 C113.327343,102.278897 113.324915,104.392326 112.021612,105.697005 L99.6815045,118.036668 C97.6589226,120.057846 94.5674797,120.584643 92.0042248,119.30736 C81.3402381,113.980438 68.9175902,104.827219 57.0446323,92.9543562 C45.1720212,81.0832273 36.0197688,68.6606789 30.693151,57.9950436 C29.4155118,55.4335432 29.9412721,52.3407379 31.963854,50.3181722" id="Fill-11" fill="#BFE89E"></path>
                    <path d="M107.759186,109 L91,92.2399066 L94.2900271,88.9499723 C95.5565628,87.6833426 97.6130825,87.6833426 98.8806293,88.9499723 L111.049213,101.120471 C112.318108,102.389797 112.315749,104.443436 111.049213,105.711414 L107.759186,109 Z" id="Fill-13" fill="#84B75B"></path>
                    <path d="M41,42.2403406 L44.2900601,38.9517672 C45.5566085,37.6839241 47.6114637,37.681565 48.8807084,38.9517672 L61.0490776,51.1199607 C62.3169741,52.3861187 62.3169741,54.4435835 61.0490776,55.7100785 L57.7603656,59 L41,42.2403406 Z" id="Fill-15" fill="#84B75B"></path>
                    <path d="M13.4627021,25 L7.53585106,25 C4.47838298,25 2,22.7617352 2,19.9991834 C2,17.2379381 4.47838298,15 7.53585106,15 L13.4627021,15 C16.5201702,15 19,17.2379381 19,19.9991834 C19,22.7617352 16.5201702,25 13.4627021,25" id="Fill-17" fill="#D3D8DF"></path>
                    <path d="M13.4627021,48 L7.53585106,48 C4.47838298,48 2,45.7617352 2,43.00049 C2,40.2379381 4.47838298,38 7.53585106,38 L13.4627021,38 C16.5201702,38 19,40.2379381 19,43.00049 C19,45.7617352 16.5201702,48 13.4627021,48" id="Fill-19" fill="#D3D8DF"></path>
                    <path d="M13.4627021,72 L7.53585106,72 C4.47838298,72 2,69.7617352 2,67.00049 C2,64.2392448 4.47838298,62 7.53585106,62 L13.4627021,62 C16.5201702,62 19,64.2379381 19,67.00049 C19,69.7617352 16.5201702,72 13.4627021,72" id="Fill-21" fill="#D3D8DF"></path>
                    <path d="M13.4627021,95 L7.53585106,95 C4.47838298,95 2,92.7610478 2,89.9998367 C2,87.2389522 4.47838298,85 7.53585106,85 L13.4627021,85 C16.5201702,85 19,87.2389522 19,89.9998367 C19,92.7610478 16.5201702,95 13.4627021,95" id="Fill-23" fill="#D3D8DF"></path>
                    <path d="M13.4627021,119 L7.53585106,119 C4.47838298,119 2,116.761048 2,113.999837 C2,111.238952 4.47838298,109 7.53585106,109 L13.4627021,109 C16.5201702,109 19,111.238952 19,113.999837 C19,116.761048 16.5201702,119 13.4627021,119" id="Fill-25" fill="#D3D8DF"></path>
                    <path d="M13.4627021,142 L7.53585106,142 C4.47838298,142 2,139.761735 2,136.999183 C2,134.237938 4.47838298,132 7.53585106,132 L13.4627021,132 C16.5201702,132 19,134.237938 19,136.999183 C19,139.761735 16.5201702,142 13.4627021,142" id="Fill-27" fill="#D3D8DF"></path>
                    <path d="M122.435693,0 L98.6040913,0 C97.1652441,0 96,1.14469863 96,2.55893881 C96,3.97317899 97.1652441,5.11787762 98.6040913,5.11787762 L122.435693,5.11787762 C124.837707,5.11787762 126.792164,7.0384465 126.792164,9.40017642 L126.792164,38.4410612 C126.792164,39.8553014 127.95845,41 129.396256,41 C130.834756,41 132,39.8553014 132,38.4410612 L132,9.40017642 C132.001389,4.21678997 127.710193,0 122.435693,0" id="Fill-29" fill="#000000"></path>
                    <g id="Group-33">
                        <mask id="mask-2" fill="white">
                            <use xlink:href="#path-1"></use>
                        </mask>
                        <g id="Clip-32"></g>
                        <path d="M122.179338,171.813139 L15.010888,171.813139 C14.5385215,171.813139 14.1553068,171.414889 14.1553068,170.9233 L14.1553068,168.001071 C14.434511,168.041518 14.7195895,168.069866 15.010888,168.069866 L113.132846,168.069866 C116.462909,168.069866 119.172019,165.343305 119.172019,161.994479 L119.172019,156.853528 L122.145474,156.853528 C123.705977,156.853528 125.180092,156.472563 126.481088,155.803973 L126.481088,167.440686 C126.482469,169.850929 124.552228,171.813139 122.179338,171.813139 M5.18310785,137.343081 C5.18310785,135.854829 6.39253194,134.644868 7.88012356,134.644868 L13.5423016,134.644868 C15.0298932,134.644868 16.2406995,135.854829 16.2406995,137.343081 C16.2406995,138.831333 15.0298932,140.042677 13.5423016,140.042677 L7.88012356,140.042677 C6.39253194,140.042677 5.18310785,138.831333 5.18310785,137.343081 M5.18310785,113.836651 C5.18310785,112.348399 6.39253194,111.137055 7.88012356,111.137055 L13.5423016,111.137055 C15.0298932,111.137055 16.2406995,112.348399 16.2406995,113.836651 C16.2406995,115.324903 15.0298932,116.536247 13.5423016,116.536247 L7.88012356,116.536247 C6.39253194,116.536247 5.18310785,115.324903 5.18310785,113.836651 M5.18310785,90.3305672 C5.18310785,88.8423152 6.39253194,87.6309715 7.88012356,87.6309715 L13.5423016,87.6309715 C15.0298932,87.6309715 16.2406995,88.8423152 16.2406995,90.3305672 C16.2406995,91.8188191 15.0298932,93.0298172 13.5423016,93.0298172 L7.88012356,93.0298172 C6.39253194,93.0298172 5.18310785,91.8188191 5.18310785,90.3305672 M5.18310785,66.8241375 C5.18310785,65.3362313 6.39253194,64.1248875 7.88012356,64.1248875 L13.5423016,64.1248875 C15.0298932,64.1248875 16.2406995,65.3362313 16.2406995,66.8241375 C16.2406995,68.3123895 15.0298932,69.5237332 13.5423016,69.5237332 L7.88012356,69.5237332 C6.39253194,69.5223504 5.18310785,68.3123895 5.18310785,66.8241375 M5.18310785,43.3180535 C5.18310785,41.8298016 6.39253194,40.6184578 7.88012356,40.6184578 L13.5423016,40.6184578 C15.0298932,40.6184578 16.2406995,41.8298016 16.2406995,43.3180535 C16.2406995,44.8059598 15.0298932,46.0159207 13.5423016,46.0159207 L7.88012356,46.0159207 C6.39253194,46.0159207 5.18310785,44.804577 5.18310785,43.3180535 M5.18310785,19.8116238 C5.18310785,18.3233719 6.39253194,17.1120281 7.88012356,17.1120281 L13.5423016,17.1120281 C15.0298932,17.1120281 16.2406995,18.3233719 16.2406995,19.8116238 C16.2406995,21.2998758 15.0298932,22.5098367 13.5423016,22.5098367 L7.88012356,22.5098367 C6.39253194,22.5098367 5.18310785,21.298493 5.18310785,19.8116238 M129.074092,47.6472937 C127.642134,47.6472937 126.482469,48.8085105 126.482469,50.2400672 L126.482469,147.329407 C126.482469,149.722364 124.535987,151.667981 122.145474,151.667981 L53.1616524,151.667981 C51.7296942,151.667981 50.5700293,152.827815 50.5700293,154.260755 C50.5700293,155.693348 51.7296942,156.853528 53.1616524,156.853528 L113.988773,156.853528 L113.988773,161.994479 C113.988773,162.484686 113.604176,162.882936 113.132846,162.882936 L15.010888,162.882936 C14.5385215,162.882936 14.1553068,162.484686 14.1553068,161.994479 L14.1553068,156.783005 C14.441422,156.82518 14.7303016,156.853528 15.0271288,156.853528 L41.8746157,156.853528 C43.3069194,156.853528 44.4662387,155.693348 44.4662387,154.260755 C44.4662387,152.827815 43.3069194,151.667981 41.8746157,151.667981 L15.0271288,151.667981 C14.5468147,151.667981 14.1553068,151.2763 14.1553068,150.795427 L14.1553068,145.202296 C18.2155162,144.887706 21.4239455,141.48495 21.4239455,137.343081 C21.4239455,133.202595 18.2155162,129.799839 14.1553068,129.485249 L14.1553068,121.695866 C18.2155162,121.381276 21.4239455,117.978175 21.4239455,113.836651 C21.4239455,109.696165 18.2155162,106.293755 14.1553068,105.978819 L14.1553068,98.189782 C18.2155162,97.8751922 21.4239455,94.4720906 21.4239455,90.3305672 C21.4239455,86.1900809 18.2155162,82.787325 14.1553068,82.4723895 L14.1553068,74.683698 C18.2155162,74.3687625 21.4239455,70.9660066 21.4239455,66.8241375 C21.4239455,62.6839969 18.2155162,59.2795125 14.1553068,58.9663055 L14.1553068,51.1758855 C18.2155162,50.8626785 21.4239455,47.459577 21.4239455,43.3180535 C21.4239455,39.1775672 18.2155162,35.7730828 14.1553068,35.4598758 L14.1553068,27.6694559 C18.2155162,27.354866 21.4239455,23.9521102 21.4239455,19.8116238 C21.4239455,15.6701004 18.2155162,12.2669988 14.1553068,11.952409 L14.1553068,6.057825 C14.1553068,5.57729766 14.5468147,5.18561602 15.0271288,5.18561602 L87.1416314,5.18561602 C88.573244,5.18561602 89.7329089,4.02543633 89.7329089,2.59284258 C89.7329089,1.16128594 88.573244,6.9140625e-05 87.1416314,6.9140625e-05 L15.0271288,6.9140625e-05 C11.6894639,6.9140625e-05 8.97206073,2.71833281 8.97206073,6.057825 L8.97206073,11.9264812 L7.88012356,11.9264812 C3.53518115,11.9264812 -0.000138219895,15.4633699 -0.000138219895,19.8116238 C-0.000138219895,24.1598777 3.53518115,27.6953836 7.88012356,27.6953836 L8.97206073,27.6953836 L8.97206073,35.4329109 L7.88012356,35.4329109 C3.53518115,35.4329109 -0.000138219895,38.9694539 -0.000138219895,43.3180535 C-0.000138219895,47.6649246 3.53518115,51.2014676 7.88012356,51.2014676 L8.97206073,51.2014676 L8.97206073,58.9393406 L7.88012356,58.9393406 C3.53518115,58.9393406 -0.000138219895,62.4758836 -0.000138219895,66.8241375 C-0.000138219895,71.1723914 3.53518115,74.7092801 7.88012356,74.7092801 L8.97206073,74.7092801 L8.97206073,82.4468074 L7.88012356,82.4468074 C3.53518115,82.4468074 -0.000138219895,85.9836961 -0.000138219895,90.3305672 C-0.000138219895,94.6788211 3.53518115,98.2153641 7.88012356,98.2153641 L8.97206073,98.2153641 L8.97206073,105.953237 L7.88012356,105.953237 C3.53518115,105.953237 -0.000138219895,109.48978 -0.000138219895,113.838034 C-0.000138219895,118.186288 3.53518115,121.722831 7.88012356,121.722831 L8.97206073,121.722831 L8.97206073,129.460704 L7.88012356,129.460704 C3.53518115,129.460704 -0.000138219895,132.997593 -0.000138219895,137.344464 C-0.000138219895,141.692718 3.53518115,145.229606 7.88012356,145.229606 L8.97206073,145.229606 L8.97206073,170.924682 C8.97206073,174.274891 11.6811707,177.000069 15.010888,177.000069 L122.179338,177.000069 C127.409925,177.000069 131.66537,172.712659 131.66537,167.441723 L131.66537,50.2400672 C131.66537,48.8085105 130.504668,47.6472937 129.074092,47.6472937" id="Fill-31" fill="#000000" mask="url(#mask-2)"></path>
                    </g>
                    <path d="M65.2470177,83.7527602 C70.2884392,88.7941241 75.538161,93.4586833 80.8515493,97.617376 C83.2020212,99.4571105 86.5715039,99.2474285 88.6877245,97.1308861 L90.8475428,94.9710924 L104.38395,108.506999 L97.2854761,115.607122 C96.0446705,116.846529 94.1699676,117.161398 92.6194796,116.388066 C81.7989352,110.983046 69.6517737,101.819666 58.4160127,90.5836872 C47.1788676,79.3466704 38.0146914,67.1999937 32.6113394,56.3802649 C31.8379985,54.8301406 32.1518331,52.9554591 33.3922927,51.7146677 L40.4911123,44.616275 L54.0275193,58.1521814 L51.867701,60.310591 C49.7507884,62.4288635 49.54145,65.7983077 51.3822436,68.1487528 C55.5395997,73.4603504 60.2055962,78.7100123 65.2470177,83.7527602 L65.2470177,83.7527602 Z M96.5813379,89.5442735 C96.7204355,89.5442735 96.9245836,89.5809506 97.1027808,89.7591457 L109.595956,102.252178 C109.88384,102.540059 109.88384,103.007518 109.595956,103.295398 L108.053772,104.83791 L94.5173654,91.3013117 L96.0595491,89.7591457 C96.2377462,89.5809506 96.4418943,89.5442735 96.5813379,89.5442735 L96.5813379,89.5442735 Z M46.7463503,39.4043283 L59.2405636,51.8959768 C59.5270631,52.1838571 59.5270631,52.6527004 59.2405636,52.9391966 L57.69838,54.4813626 L44.161973,40.9451103 L45.7027726,39.4043283 C45.9906561,39.1164481 46.4598509,39.1164481 46.7463503,39.4043283 L46.7463503,39.4043283 Z M62.9100403,56.6100154 C64.029049,55.4910195 64.6456457,54.001447 64.6456457,52.4174137 C64.6456457,50.8347646 64.029049,49.345538 62.9100403,48.2261961 L50.417211,35.7335095 C48.1048006,33.4221635 44.3443223,33.4221635 42.033296,35.7335095 L29.721432,48.0452329 C26.9007272,50.8659054 26.1965891,55.1463936 27.9671418,58.698185 C33.6140875,70.0057878 43.1239316,82.6323802 54.745152,94.253468 C66.3660264,105.874556 78.993109,115.383945 90.301533,121.03221 C91.6073891,121.682363 93.0101292,122 94.4024888,122 C96.8014027,122 99.1695214,121.061967 100.954953,119.27794 L113.265433,106.966217 C115.578189,104.655217 115.578189,100.893744 113.265433,98.5823975 L100.772603,86.0897109 C98.461231,83.7783649 94.7010988,83.7783649 92.3897264,86.0897109 L85.0185938,93.4614514 C84.7535472,93.7261489 84.3372926,93.7559058 84.0507932,93.5316914 C78.9024534,89.5010223 73.8108599,84.9759051 68.9164943,80.0819414 C64.0224747,75.1876317 59.49869,70.0964424 55.4679749,64.9495455 C55.2437579,64.6630493 55.2735151,64.2464534 55.5382157,63.9817558 L62.9100403,56.6100154 Z" id="Fill-34" fill="#000000"></path>
                    <path d="M83.4451111,70.2452245 L86.221718,67.4963855 C87.2487108,66.4790491 87.2608995,64.8161625 86.2488815,63.7823722 C85.2368635,62.7499822 83.5826703,62.7377293 82.5553293,63.7550658 L79.7790707,66.5049551 C78.7517296,67.5212413 78.7381478,69.1841279 79.7519071,70.2179182 C80.2617468,70.7388393 80.9366577,71 81.6126133,71 C82.2739423,71 82.9363161,70.7482915 83.4451111,70.2452245" id="Fill-36" fill="#000000"></path>
                    <path d="M73.5046526,66 C74.6021249,66 75.6098373,65.2392913 75.9161552,64.0793849 L76.9091858,60.3145746 C77.2769007,58.9215704 76.4947557,57.4807601 75.1627066,57.0948226 C73.8306576,56.7106298 72.4515597,57.5285661 72.0838448,58.9215704 L71.0908142,62.6863807 C70.7230993,64.0793849 71.5052443,65.5201952 72.8372934,65.9047369 C73.0601914,65.9699904 73.2844241,66 73.5046526,66" id="Fill-38" fill="#000000"></path>
                    <path d="M85.9573363,74.028838 C84.5596244,74.3800962 83.7214153,75.7585235 84.0847786,77.109672 C84.3910071,78.2462936 85.451136,79 86.6119476,79 C86.8296868,79 87.0502131,78.9737314 87.2707395,78.9185 L91.0440737,77.9701366 C92.4400437,77.6202255 93.2786011,76.2414614 92.9152378,74.8906498 C92.5518746,73.5408485 91.1242018,72.7315739 89.729277,73.0814849 L85.9573363,74.028838 Z" id="Fill-40" fill="#000000"></path>
                </g>
                <polygon id="Fill-1" fill="#DCDCDC" points="232.52328 67 232.52328 72.52444 227 72.52444 227 78.04772 232.52328 78.04772 232.52328 83.571 238.04714 83.571 238.04714 78.04772 243.571 78.04772 243.571 72.52444 238.04714 72.52444 238.04714 67"></polygon>
                <polygon id="Fill-1-Copy" fill="#DCDCDC" points="279.19004 143 279.19004 147.19092 275 147.19092 275 151.38096 279.19004 151.38096 279.19004 155.571 283.38052 155.571 283.38052 151.38096 287.571 151.38096 287.571 147.19092 283.38052 147.19092 283.38052 143"></polygon>
                <polygon id="Fill-1-Copy-2" fill="#DCDCDC" points="66.19004 72 66.19004 76.19092 62 76.19092 62 80.38096 66.19004 80.38096 66.19004 84.571 70.38052 84.571 70.38052 80.38096 74.571 80.38096 74.571 76.19092 70.38052 76.19092 70.38052 72"></polygon>
                <polygon id="Fill-1" fill="#DCDCDC" points="153.18983 50 153.18983 57.19134 146 57.19134 146 64.38117 153.18983 64.38117 153.18983 71.571 160.380415 71.571 160.380415 64.38117 167.571 64.38117 167.571 57.19134 160.380415 57.19134 160.380415 50"></polygon>
                <polygon id="Fill-1-Copy-5" fill="#84B75B" opacity="0.494326637" points="98.18983 -4.4408921e-14 98.18983 7.19134 91 7.19134 91 14.38117 98.18983 14.38117 98.18983 21.571 105.380415 21.571 105.380415 14.38117 112.571 14.38117 112.571 7.19134 105.380415 7.19134 105.380415 -4.4408921e-14"></polygon>
                <polygon id="Fill-1-Copy-3" fill="#DCDCDC" points="6.52321 156 6.52321 162.52458 -4.4408921e-14 162.52458 -4.4408921e-14 169.04779 6.52321 169.04779 6.52321 175.571 13.047105 175.571 13.047105 169.04779 19.571 169.04779 19.571 162.52458 13.047105 162.52458 13.047105 156"></polygon>
                <polygon id="Fill-1-Copy-4" fill="#CE3F63" points="7.66641 45 7.66641 48.66718 4 48.66718 4 52.33359 7.66641 52.33359 7.66641 56 11.333205 56 11.333205 52.33359 15 52.33359 15 48.66718 11.333205 48.66718 11.333205 45"></polygon>
            </g>
        </g>
    </g>
</svg>