<?xml version="1.0" encoding="UTF-8"?>
<svg width="34px" height="34px" viewBox="0 0 34 34" version="1.1" xmlns="http://www.w3.org/2000/svg" xmlns:xlink="http://www.w3.org/1999/xlink">
    <!-- Generator: Sketch 55.2 (78181) - https://sketchapp.com -->
    <title>Stroke 1</title>
    <desc>Created with Sketch.</desc>
    <g id="Simulação" stroke="none" stroke-width="1" fill="none" fill-rule="evenodd" stroke-linecap="round" stroke-linejoin="round">
        <g id="Amil-400-QP-" transform="translate(-343.000000, -38.000000)" stroke="#FFFFFF" stroke-width="2">
            <path d="M361.812553,40.3761442 L364.283343,48.3217175 C364.538516,49.1422354 365.269748,49.6978617 366.095406,49.6978617 L374.090625,49.6978617 C375.936973,49.6978617 376.704177,52.1664635 375.210799,53.3006224 L368.74268,58.2113955 C368.07496,58.7182724 367.795057,59.6174942 368.05023,60.4380121 L370.52102,68.3841728 C371.091505,70.2190317 369.082161,71.7443609 367.588221,70.6107893 L361.120103,65.6994289 C360.452382,65.192552 359.548037,65.192552 358.879755,65.6994289 L352.411636,70.6107893 C350.918258,71.7443609 348.908915,70.2190317 349.4794,68.3841728 L351.949628,60.4380121 C352.2048,59.6174942 351.925459,58.7182724 351.257739,58.2113955 L344.789058,53.3006224 C343.29568,52.1664635 344.063446,49.6978617 345.909232,49.6978617 L353.904452,49.6978617 C354.730109,49.6978617 355.461904,49.1422354 355.717076,48.3217175 L358.187304,40.3761442 C358.757789,38.5412853 361.242068,38.5412853 361.812553,40.3761442 Z" id="Stroke-1"></path>
        </g>
    </g>
</svg>