<?xml version="1.0" encoding="UTF-8"?>
<svg width="24px" height="24px" viewBox="0 0 24 24" version="1.1" xmlns="http://www.w3.org/2000/svg" xmlns:xlink="http://www.w3.org/1999/xlink">
    <!-- Generator: Sketch 55.2 (78181) - https://sketchapp.com -->
    <title>Stroke 1</title>
    <desc>Created with Sketch.</desc>
    <g id="Simulação" stroke="none" stroke-width="1" fill="none" fill-rule="evenodd" stroke-linecap="round" stroke-linejoin="round">
        <g id="Opções-1" transform="translate(-216.000000, -474.000000)" stroke="#FFFFFF" stroke-width="2">
            <path d="M229.24613,475.946099 L230.944798,481.408681 C231.12023,481.972787 231.622952,482.35478 232.190591,482.35478 L237.687305,482.35478 C238.956669,482.35478 239.484122,484.051944 238.457424,484.831678 L234.010593,488.207834 C233.551535,488.556312 233.359102,489.174527 233.534533,489.738633 L235.233201,495.201619 C235.625409,496.463084 234.243986,497.511748 233.216902,496.732418 L228.77007,493.355857 C228.311013,493.00738 227.689276,493.00738 227.229831,493.355857 L222.783,496.732418 C221.756303,497.511748 220.374879,496.463084 220.767087,495.201619 L222.465369,489.738633 C222.6408,489.174527 222.448753,488.556312 221.989695,488.207834 L217.542477,484.831678 C216.51578,484.051944 217.043619,482.35478 218.312597,482.35478 L223.809311,482.35478 C224.37695,482.35478 224.880059,481.972787 225.05549,481.408681 L226.753772,475.946099 C227.14598,474.684634 228.853922,474.684634 229.24613,475.946099 Z" id="Stroke-1"></path>
        </g>
    </g>
</svg>